<svg xmlns="http://www.w3.org/2000/svg" xmlns:v="https://vecta.io/nano" xmlns:xlink="http://www.w3.org/1999/xlink" viewBox="0 355.2 1172.8 81.7"><path fill="#aed2e9" d="M612 355.2h-51.2H0v81.6h560.8H612h560.8v-81.6z"/><g fill="#bddaef"><use xlink:href="#B"/><use y="1.7" xlink:href="#B"/><use xlink:href="#C"/><use xlink:href="#D"/><use xlink:href="#E"/><use y="-6" xlink:href="#B"/><use xlink:href="#F"/><path d="M38.4 358.3a11.29 11.29 0 0 0-11.3 11.3c0 6.2 5 11.2 11.2 11.2s11.2-5 11.2-11.2c.1-6.3-4.9-11.3-11.1-11.3zm5.6 17.9c-1 0-1.7-.8-1.7-1.7 0-.6.3-1.1.8-1.4l-1.3-2.6c-.2.1-.4.1-.6.1s-.4 0-.6-.1l-1.3 2.5c.5.3.8.8.8 1.4 0 1-.8 1.7-1.7 1.7-1 0-1.7-.8-1.7-1.7a1.75 1.75 0 0 1 .7-1.4l-1.4-2.6c-.2.1-.4.1-.6.1-.1 0-.3 0-.5-.1l-1.3 2.5a1.75 1.75 0 0 1 .7 1.4c0 1-.8 1.7-1.7 1.7-1 0-1.7-.8-1.7-1.7 0-1 .8-1.7 1.7-1.7.2 0 .4 0 .6.1l1.3-2.5c-.5-.3-.8-.8-.8-1.5 0-1 .8-1.7 1.7-1.7.3 0 .5.1.7.1l1.3-2.6a1.75 1.75 0 0 1-.7-1.4c0-1 .8-1.7 1.7-1.7 1 0 1.7.8 1.7 1.7 0 .6-.3 1.1-.8 1.4l1.3 2.5c.2-.1.3-.1.5-.1 1 0 1.7.8 1.7 1.7a1.75 1.75 0 0 1-.7 1.4l1.3 2.6c.2-.1.4-.1.6-.1 1 0 1.7.8 1.7 1.7.1 1.2-.7 2-1.7 2z"/><use x="51" xlink:href="#B"/><use x="51" y="1.7" xlink:href="#B"/><use x="51" xlink:href="#C"/><use xlink:href="#G"/><use xlink:href="#H"/><use x="51" y="-6" xlink:href="#B"/><use xlink:href="#I"/><path d="M89.3 358.3A11.29 11.29 0 0 0 78 369.6c0 6.2 5 11.2 11.2 11.2s11.2-5 11.2-11.2c.2-6.3-4.8-11.3-11.1-11.3zm5.8 17.9c-1 0-1.7-.8-1.7-1.7 0-.6.3-1.1.8-1.4l-1.3-2.6c-.2.1-.4.1-.6.1s-.4 0-.6-.1l-1.3 2.5c.5.3.8.8.8 1.4 0 1-.8 1.7-1.7 1.7-1 0-1.7-.8-1.7-1.7a1.75 1.75 0 0 1 .7-1.4l-1.4-2.6c-.2.1-.4.1-.6.1-.1 0-.3 0-.5-.1l-1.3 2.5a1.75 1.75 0 0 1 .7 1.4c0 1-.8 1.7-1.7 1.7-1 0-1.7-.8-1.7-1.7 0-1 .8-1.7 1.7-1.7.2 0 .4 0 .6.1l1.3-2.5c-.5-.3-.8-.8-.8-1.5 0-1 .8-1.7 1.7-1.7.3 0 .5.1.7.1l1.3-2.6a1.75 1.75 0 0 1-.7-1.4c0-1 .8-1.7 1.7-1.7s1.7.8 1.7 1.7c0 .6-.3 1.1-.8 1.4l1.3 2.5c.2-.1.3-.1.5-.1 1 0 1.7.8 1.7 1.7a1.75 1.75 0 0 1-.7 1.4l1.3 2.6c.2-.1.4-.1.6-.1 1 0 1.7.8 1.7 1.7 0 1.2-.8 2-1.7 2z"/><use x="102" xlink:href="#B"/><use x="102" y="1.7" xlink:href="#B"/><use xlink:href="#J"/><use x="51" xlink:href="#G"/><use xlink:href="#K"/><use x="102" y="-6" xlink:href="#B"/><use x="101.9" xlink:href="#F"/><path d="M140.3 358.3a11.29 11.29 0 0 0-11.3 11.3c0 6.2 5 11.2 11.2 11.2s11.2-5 11.2-11.2c.2-6.3-4.9-11.3-11.1-11.3zm5.7 17.9c-1 0-1.7-.8-1.7-1.7 0-.6.3-1.1.8-1.4l-1.3-2.6c-.2.1-.4.1-.6.1s-.4 0-.6-.1l-1.3 2.5c.5.3.8.8.8 1.4 0 1-.8 1.7-1.7 1.7s-1.7-.8-1.7-1.7a1.75 1.75 0 0 1 .7-1.4l-1.4-2.6c-.2.1-.4.1-.6.1-.1 0-.3 0-.5-.1l-1.3 2.5a1.75 1.75 0 0 1 .7 1.4c0 1-.8 1.7-1.7 1.7s-1.7-.8-1.7-1.7c0-1 .8-1.7 1.7-1.7.2 0 .4 0 .6.1l1.3-2.5c-.5-.3-.8-.8-.8-1.5 0-1 .8-1.7 1.7-1.7.3 0 .5.1.7.1l1.3-2.6a1.75 1.75 0 0 1-.7-1.4c0-1 .8-1.7 1.7-1.7s1.7.8 1.7 1.7c0 .6-.3 1.1-.8 1.4l1.3 2.5c.2-.1.3-.1.5-.1 1 0 1.7.8 1.7 1.7a1.75 1.75 0 0 1-.7 1.4l1.3 2.6c.2-.1.4-.1.6-.1 1 0 1.7.8 1.7 1.7.1 1.2-.7 2-1.7 2z"/><use x="153" xlink:href="#B"/><use x="153" y="1.7" xlink:href="#B"/><use xlink:href="#L"/><use x="102" xlink:href="#G"/><use xlink:href="#M"/><use x="153" y="-6" xlink:href="#B"/><use xlink:href="#N"/><path d="M191.3 358.3a11.29 11.29 0 0 0-11.3 11.3c0 6.2 5 11.2 11.2 11.2s11.2-5 11.2-11.2c.2-6.3-4.8-11.3-11.1-11.3zm5.7 17.9c-1 0-1.7-.8-1.7-1.7 0-.6.3-1.1.8-1.4l-1.3-2.6c-.2.1-.4.1-.6.1s-.4 0-.6-.1l-1.3 2.5c.5.3.8.8.8 1.4 0 1-.8 1.7-1.7 1.7s-1.7-.8-1.7-1.7a1.75 1.75 0 0 1 .7-1.4l-1.4-2.6c-.2.1-.4.1-.6.1-.1 0-.3 0-.5-.1l-1.3 2.5a1.75 1.75 0 0 1 .7 1.4c0 1-.8 1.7-1.7 1.7s-1.7-.8-1.7-1.7c0-1 .8-1.7 1.7-1.7.2 0 .4 0 .6.1l1.3-2.5c-.5-.3-.8-.8-.8-1.5 0-1 .8-1.7 1.7-1.7.3 0 .5.1.7.1l1.3-2.6a1.75 1.75 0 0 1-.7-1.4c0-1 .8-1.7 1.7-1.7 1 0 1.7.8 1.7 1.7 0 .6-.3 1.1-.8 1.4l1.3 2.5c.2-.1.3-.1.5-.1 1 0 1.7.8 1.7 1.7a1.75 1.75 0 0 1-.7 1.4l1.3 2.6c.2-.1.4-.1.6-.1 1 0 1.7.8 1.7 1.7.1 1.2-.7 2-1.7 2z"/><use x="204" xlink:href="#B"/><use x="204" y="1.7" xlink:href="#B"/><use x="203.9" xlink:href="#C"/><use x="152.9" xlink:href="#G"/><use xlink:href="#O"/><use x="204" y="-6" xlink:href="#B"/><use x="203.9" xlink:href="#F"/><path d="M242.3 358.3a11.29 11.29 0 0 0-11.3 11.3c0 6.2 5 11.2 11.2 11.2s11.2-5 11.2-11.2c.2-6.3-4.9-11.3-11.1-11.3zm5.7 17.9c-1 0-1.7-.8-1.7-1.7 0-.6.3-1.1.8-1.4l-1.3-2.6c-.2.1-.4.1-.6.1s-.4 0-.6-.1l-1.3 2.5c.5.3.8.8.8 1.4 0 1-.8 1.7-1.7 1.7-1 0-1.7-.8-1.7-1.7a1.75 1.75 0 0 1 .7-1.4l-1.4-2.6c-.2.1-.4.1-.6.1-.1 0-.3 0-.5-.1l-1.3 2.5a1.75 1.75 0 0 1 .7 1.4c0 1-.8 1.7-1.7 1.7-1 0-1.7-.8-1.7-1.7 0-1 .8-1.7 1.7-1.7.2 0 .4 0 .6.1l1.3-2.5c-.5-.3-.8-.8-.8-1.5 0-1 .8-1.7 1.7-1.7.3 0 .5.1.7.1l1.3-2.6a1.75 1.75 0 0 1-.7-1.4c0-1 .8-1.7 1.7-1.7 1 0 1.7.8 1.7 1.7 0 .6-.3 1.1-.8 1.4l1.3 2.5c.2-.1.3-.1.5-.1 1 0 1.7.8 1.7 1.7a1.75 1.75 0 0 1-.7 1.4l1.3 2.6c.2-.1.4-.1.6-.1 1 0 1.7.8 1.7 1.7 0 1.2-.7 2-1.7 2z"/><use xlink:href="#P"/><use y="1.7" xlink:href="#P"/><use x="254.9" xlink:href="#C"/><use x="203.9" xlink:href="#G"/><use xlink:href="#Q"/><use y="-6" xlink:href="#P"/><path d="M14.8 392.8l-1.3-2.5c-.2.1-.4.1-.6.1s-.4 0-.6-.1l-1.4 2.7a1.75 1.75 0 0 1 0 2.8l1.4 2.6c.2-.1.4-.1.6-.1s.4 0 .6.1l1.2-2.5c-.5-.3-.8-.8-.8-1.4.1-.9.4-1.4.9-1.7z"/><path d="M12.9 383.8c-6.2 0-11.2 5-11.2 11.2s5 11.2 11.2 11.2 11.2-5 11.2-11.2-5-11.2-11.2-11.2zm5.7 17.8c-1 0-1.7-.8-1.7-1.7 0-.6.3-1.1.8-1.4l-1.3-2.6c-.2.1-.4.1-.6.1s-.4 0-.6-.1l-1.3 2.5c.5.3.8.8.8 1.4 0 1-.8 1.7-1.7 1.7s-1.7-.8-1.7-1.7a1.75 1.75 0 0 1 .7-1.4l-1.4-2.6c-.2.1-.4.1-.6.1-.1 0-.3 0-.5-.1l-1.3 2.5a1.75 1.75 0 0 1 .7 1.4c0 1-.8 1.7-1.7 1.7s-1.7-.8-1.7-1.7c0-1 .8-1.7 1.7-1.7.2 0 .4 0 .6.1l1.3-2.5c-.5-.3-.8-.8-.8-1.5 0-1 .8-1.7 1.7-1.7.3 0 .5.1.7.1l1.3-2.6a1.75 1.75 0 0 1-.7-1.4c0-1 .8-1.7 1.7-1.7s1.7.8 1.7 1.7c0 .6-.3 1.1-.8 1.4l1.3 2.5c.2-.1.3-.1.5-.1 1 0 1.7.8 1.7 1.7a1.75 1.75 0 0 1-.7 1.4L18 398c.2-.1.4-.1.6-.1 1 0 1.7.8 1.7 1.7 0 1.3-.8 2-1.7 2z"/><use x="25.5" y="25.5" xlink:href="#B"/><use x="25.5" y="27.2" xlink:href="#B"/><use x="25.5" y="25.5" xlink:href="#C"/><use x="-25.5" y="25.5" xlink:href="#G"/><path d="M38.4 383.8c-6.2 0-11.2 5-11.2 11.2s5 11.2 11.2 11.2 11.2-5 11.2-11.2-5-11.2-11.2-11.2zm-.6 16.7c0 .5-.4.8-.8.8h-4c-.5 0-.8-.4-.8-.8v-4c0-.5.4-.8.8-.8h4c.5 0 .8.4.8.8v4zm0-6.9c0 .5-.4.8-.8.8h-4c-.5 0-.8-.4-.8-.8v-3.9c0-.5.4-.8.8-.8h4c.5 0 .8.4.8.8 0 0 0 3.9 0 3.9zm6.8 6.9c0 .5-.4.8-.8.8h-4c-.5 0-.8-.4-.8-.8v-4c0-.5.4-.8.8-.8h4c.5 0 .8.4.8.8v4zm0-6.9c0 .5-.4.8-.8.8h-4c-.5 0-.8-.4-.8-.8v-3.9c0-.5.4-.8.8-.8h4c.5 0 .8.4.8.8v3.9z"/><use x="25.5" y="19.5" xlink:href="#B"/><use xlink:href="#R"/><path d="M63.9 383.8a11.29 11.29 0 0 0-11.3 11.3c0 6.3 5 11.2 11.2 11.2s11.2-5 11.2-11.2c.1-6.3-4.9-11.3-11.1-11.3zm5.6 17.8c-1 0-1.7-.8-1.7-1.7 0-.6.3-1.1.8-1.4l-1.3-2.6c-.2.1-.4.1-.6.1s-.4 0-.6-.1l-1.3 2.5c.5.3.8.8.8 1.4 0 1-.8 1.7-1.7 1.7-1 0-1.7-.8-1.7-1.7a1.75 1.75 0 0 1 .7-1.4l-1.4-2.6c-.2.1-.4.1-.6.1-.1 0-.3 0-.5-.1l-1.3 2.5a1.75 1.75 0 0 1 .7 1.4c0 1-.8 1.7-1.7 1.7-1 0-1.7-.8-1.7-1.7 0-1 .8-1.7 1.7-1.7.2 0 .4 0 .6.1l1.3-2.5c-.5-.3-.8-.8-.8-1.5 0-1 .8-1.7 1.7-1.7.3 0 .5.1.7.1l1.3-2.6a1.75 1.75 0 0 1-.7-1.4c0-1 .8-1.7 1.7-1.7 1 0 1.7.8 1.7 1.7 0 .6-.3 1.1-.8 1.4l1.3 2.5c.2-.1.3-.1.5-.1 1 0 1.7.8 1.7 1.7a1.75 1.75 0 0 1-.7 1.4l1.3 2.6c.2-.1.4-.1.6-.1 1 0 1.7.8 1.7 1.7.1 1.3-.7 2-1.7 2z"/><use x="76.5" y="25.5" xlink:href="#B"/><use x="76.5" y="27.2" xlink:href="#B"/><use x="76.5" y="25.5" xlink:href="#C"/><use xlink:href="#S"/><use xlink:href="#T"/><use x="76.5" y="19.5" xlink:href="#B"/><use xlink:href="#U"/><use xlink:href="#V"/><use x="127.5" y="25.5" xlink:href="#B"/><use x="127.5" y="27.2" xlink:href="#B"/><use x="-25.5" y="25.5" xlink:href="#L"/><use x="51" xlink:href="#S"/><use x="25.5" y="25.5" xlink:href="#K"/><use x="127.5" y="19.5" xlink:href="#B"/><use xlink:href="#W"/><path d="M165.8 383.8a11.29 11.29 0 0 0-11.3 11.3c0 6.3 5 11.2 11.2 11.2s11.2-5 11.2-11.2c.2-6.3-4.9-11.3-11.1-11.3zm5.7 17.8c-1 0-1.7-.8-1.7-1.7 0-.6.3-1.1.8-1.4l-1.3-2.6c-.2.1-.4.1-.6.1s-.4 0-.6-.1l-1.3 2.5c.5.3.8.8.8 1.4 0 1-.8 1.7-1.7 1.7s-1.7-.8-1.7-1.7a1.75 1.75 0 0 1 .7-1.4l-1.4-2.6c-.2.1-.4.1-.6.1-.1 0-.3 0-.5-.1l-1.3 2.5a1.75 1.75 0 0 1 .7 1.4c0 1-.8 1.7-1.7 1.7s-1.7-.8-1.7-1.7c0-1 .8-1.7 1.7-1.7.2 0 .4 0 .6.1l1.3-2.5c-.5-.3-.8-.8-.8-1.5 0-1 .8-1.7 1.7-1.7.3 0 .5.1.7.1l1.3-2.6a1.75 1.75 0 0 1-.7-1.4c0-1 .8-1.7 1.7-1.7s1.7.8 1.7 1.7c0 .6-.3 1.1-.8 1.4l1.3 2.5c.2-.1.3-.1.5-.1 1 0 1.7.8 1.7 1.7a1.75 1.75 0 0 1-.7 1.4l1.3 2.6c.2-.1.4-.1.6-.1 1 0 1.7.8 1.7 1.7.1 1.3-.7 2-1.7 2z"/><use x="178.5" y="25.5" xlink:href="#B"/><use x="178.5" y="27.2" xlink:href="#B"/><use xlink:href="#X"/><use x="102" xlink:href="#S"/><use x="-25.5" y="25.5" xlink:href="#O"/><use x="178.5" y="19.5" xlink:href="#B"/><use x="101.9" xlink:href="#U"/><path d="M216.8 383.8a11.29 11.29 0 0 0-11.3 11.3c0 6.3 5 11.2 11.2 11.2s11.2-5 11.2-11.2c.2-6.3-4.9-11.3-11.1-11.3zm5.7 17.8c-1 0-1.7-.8-1.7-1.7 0-.6.3-1.1.8-1.4l-1.3-2.6c-.2.1-.4.1-.6.1s-.4 0-.6-.1l-1.3 2.5c.5.3.8.8.8 1.4 0 1-.8 1.7-1.7 1.7-1 0-1.7-.8-1.7-1.7a1.75 1.75 0 0 1 .7-1.4l-1.4-2.6c-.2.1-.4.1-.6.1-.1 0-.3 0-.5-.1l-1.3 2.5a1.75 1.75 0 0 1 .7 1.4c0 1-.8 1.7-1.7 1.7s-1.7-.8-1.7-1.7c0-1 .8-1.7 1.7-1.7.2 0 .4 0 .6.1l1.3-2.5c-.5-.3-.8-.8-.8-1.5 0-1 .8-1.7 1.7-1.7.3 0 .5.1.7.1l1.3-2.6a1.75 1.75 0 0 1-.7-1.4c0-1 .8-1.7 1.7-1.7 1 0 1.7.8 1.7 1.7 0 .6-.3 1.1-.8 1.4l1.3 2.5c.2-.1.3-.1.5-.1 1 0 1.7.8 1.7 1.7a1.75 1.75 0 0 1-.7 1.4l1.3 2.6c.2-.1.4-.1.6-.1 1 0 1.7.8 1.7 1.7 0 1.3-.7 2-1.7 2z"/><use xlink:href="#Y"/><use y="1.7" xlink:href="#Y"/><use x="229.4" y="25.5" xlink:href="#C"/><use x="178.4" y="25.5" xlink:href="#G"/><path d="M242.3 383.8c-6.2 0-11.2 5-11.2 11.2s5 11.2 11.2 11.2 11.2-5 11.2-11.2-5-11.2-11.2-11.2zm-.6 16.7c0 .5-.4.8-.8.8h-4c-.5 0-.8-.4-.8-.8v-4c0-.5.4-.8.8-.8h4c.5 0 .8.4.8.8v4zm0-6.9c0 .5-.4.8-.8.8h-4c-.5 0-.8-.4-.8-.8v-3.9c0-.5.4-.8.8-.8h4c.5 0 .8.4.8.8v3.9zm6.9 6.9c0 .5-.4.8-.8.8h-4c-.5 0-.8-.4-.8-.8v-4c0-.5.4-.8.8-.8h3.9c.5 0 .8.4.8.8l.1 4h0zm0-6.9c0 .5-.4.8-.8.8h-4c-.5 0-.8-.4-.8-.8v-3.9c0-.5.4-.8.8-.8h3.9c.5 0 .8.4.8.8l.1 3.9h0z"/><use y="-6" xlink:href="#Y"/><use x="152.9" xlink:href="#U"/><use xlink:href="#Z"/><use y="51" xlink:href="#B"/><use y="52.7" xlink:href="#B"/><use y="51" xlink:href="#C"/><use y="51" xlink:href="#D"/><use y="51" xlink:href="#E"/><use y="45" xlink:href="#B"/><use x="-76.5" y="25.5" xlink:href="#U"/><path d="M38.4 409.3a11.29 11.29 0 0 0-11.3 11.3c0 6.3 5 11.2 11.2 11.2s11.2-5 11.2-11.2c.1-6.3-4.9-11.3-11.1-11.3zm5.6 17.8c-1 0-1.7-.8-1.7-1.7 0-.6.3-1.1.8-1.4l-1.3-2.6c-.2.1-.4.1-.6.1s-.4 0-.6-.1l-1.3 2.5c.5.3.8.8.8 1.4 0 1-.8 1.7-1.7 1.7-1 0-1.7-.8-1.7-1.7a1.75 1.75 0 0 1 .7-1.4l-1.4-2.6c-.2.1-.4.1-.6.1-.1 0-.3 0-.5-.1l-1.3 2.5a1.75 1.75 0 0 1 .7 1.4c0 1-.8 1.7-1.7 1.7-1 0-1.7-.8-1.7-1.7s.8-1.7 1.7-1.7c.2 0 .4 0 .6.1l1.3-2.5c-.5-.3-.8-.8-.8-1.5 0-1 .8-1.7 1.7-1.7.3 0 .5.1.7.1l1.3-2.6a1.75 1.75 0 0 1-.7-1.4c0-1 .8-1.7 1.7-1.7 1 0 1.7.8 1.7 1.7 0 .6-.3 1.1-.8 1.4l1.3 2.5c.2-.1.3-.1.5-.1 1 0 1.7.8 1.7 1.7a1.75 1.75 0 0 1-.7 1.4l1.3 2.6c.2-.1.4-.1.6-.1 1 0 1.7.8 1.7 1.7.1 1.3-.7 2-1.7 2z"/><use x="51" y="51" xlink:href="#B"/><use x="51" y="52.7" xlink:href="#B"/><use x="51" y="51" xlink:href="#C"/><use y="51" xlink:href="#G"/><use xlink:href="#a"/><use x="51" y="45" xlink:href="#B"/><use x="25.5" y="25.5" xlink:href="#R"/><path d="M89.3 409.3A11.29 11.29 0 0 0 78 420.6c0 6.3 5 11.2 11.2 11.2s11.2-5 11.2-11.2c.2-6.3-4.8-11.3-11.1-11.3zm5.8 17.8c-1 0-1.7-.8-1.7-1.7 0-.6.3-1.1.8-1.4l-1.3-2.6c-.2.1-.4.1-.6.1s-.4 0-.6-.1l-1.3 2.5c.5.3.8.8.8 1.4 0 1-.8 1.7-1.7 1.7-1 0-1.7-.8-1.7-1.7a1.75 1.75 0 0 1 .7-1.4l-1.4-2.6c-.2.1-.4.1-.6.1-.1 0-.3 0-.5-.1l-1.3 2.5a1.75 1.75 0 0 1 .7 1.4c0 1-.8 1.7-1.7 1.7-1 0-1.7-.8-1.7-1.7s.8-1.7 1.7-1.7c.2 0 .4 0 .6.1l1.3-2.5c-.5-.3-.8-.8-.8-1.5 0-1 .8-1.7 1.7-1.7.3 0 .5.1.7.1l1.3-2.6a1.75 1.75 0 0 1-.7-1.4c0-1 .8-1.7 1.7-1.7 1 0 1.7.8 1.7 1.7 0 .6-.3 1.1-.8 1.4l1.3 2.5c.2-.1.3-.1.5-.1 1 0 1.7.8 1.7 1.7a1.75 1.75 0 0 1-.7 1.4l1.3 2.6c.2-.1.4-.1.6-.1 1 0 1.7.8 1.7 1.7 0 1.3-.8 2-1.7 2z"/><use x="102" y="51" xlink:href="#B"/><use x="102" y="52.7" xlink:href="#B"/><use y="51" xlink:href="#J"/><use x="51" y="51" xlink:href="#G"/><use xlink:href="#b"/><use x="102" y="45" xlink:href="#B"/><use x="25.4" y="25.5" xlink:href="#U"/><path d="M140.3 409.3a11.29 11.29 0 0 0-11.3 11.3c0 6.3 5 11.2 11.2 11.2s11.2-5 11.2-11.2c.2-6.3-4.9-11.3-11.1-11.3zm5.7 17.8c-1 0-1.7-.8-1.7-1.7 0-.6.3-1.1.8-1.4l-1.3-2.6c-.2.1-.4.1-.6.1s-.4 0-.6-.1l-1.3 2.5c.5.3.8.8.8 1.4 0 1-.8 1.7-1.7 1.7s-1.7-.8-1.7-1.7a1.75 1.75 0 0 1 .7-1.4l-1.4-2.6c-.2.1-.4.1-.6.1-.1 0-.3 0-.5-.1l-1.3 2.5a1.75 1.75 0 0 1 .7 1.4c0 1-.8 1.7-1.7 1.7s-1.7-.8-1.7-1.7.8-1.7 1.7-1.7c.2 0 .4 0 .6.1l1.3-2.5c-.5-.3-.8-.8-.8-1.5 0-1 .8-1.7 1.7-1.7.3 0 .5.1.7.1l1.3-2.6a1.75 1.75 0 0 1-.7-1.4c0-1 .8-1.7 1.7-1.7s1.7.8 1.7 1.7c0 .6-.3 1.1-.8 1.4l1.3 2.5c.2-.1.3-.1.5-.1 1 0 1.7.8 1.7 1.7a1.75 1.75 0 0 1-.7 1.4l1.3 2.6c.2-.1.4-.1.6-.1 1 0 1.7.8 1.7 1.7.1 1.3-.7 2-1.7 2z"/><use x="153" y="51" xlink:href="#B"/><use x="153" y="52.7" xlink:href="#B"/><use y="51" xlink:href="#L"/><use x="102" y="51" xlink:href="#G"/><use xlink:href="#c"/><use x="153" y="45" xlink:href="#B"/><use x="25.5" y="25.5" xlink:href="#W"/><path d="M191.3 409.3a11.29 11.29 0 0 0-11.3 11.3c0 6.3 5 11.2 11.2 11.2s11.2-5 11.2-11.2c.2-6.3-4.8-11.3-11.1-11.3zm5.7 17.8c-1 0-1.7-.8-1.7-1.7 0-.6.3-1.1.8-1.4l-1.3-2.6c-.2.1-.4.1-.6.1s-.4 0-.6-.1l-1.3 2.5c.5.3.8.8.8 1.4 0 1-.8 1.7-1.7 1.7s-1.7-.8-1.7-1.7a1.75 1.75 0 0 1 .7-1.4l-1.4-2.6c-.2.1-.4.1-.6.1-.1 0-.3 0-.5-.1l-1.3 2.5a1.75 1.75 0 0 1 .7 1.4c0 1-.8 1.7-1.7 1.7s-1.7-.8-1.7-1.7.8-1.7 1.7-1.7c.2 0 .4 0 .6.1l1.3-2.5c-.5-.3-.8-.8-.8-1.5 0-1 .8-1.7 1.7-1.7.3 0 .5.1.7.1l1.3-2.6a1.75 1.75 0 0 1-.7-1.4c0-1 .8-1.7 1.7-1.7 1 0 1.7.8 1.7 1.7 0 .6-.3 1.1-.8 1.4l1.3 2.5c.2-.1.3-.1.5-.1 1 0 1.7.8 1.7 1.7a1.75 1.75 0 0 1-.7 1.4l1.3 2.6c.2-.1.4-.1.6-.1 1 0 1.7.8 1.7 1.7.1 1.3-.7 2-1.7 2z"/><use x="204" y="51" xlink:href="#B"/><use x="204" y="52.7" xlink:href="#B"/><use x="203.9" y="51" xlink:href="#C"/><use x="152.9" y="51" xlink:href="#G"/><use y="51" xlink:href="#O"/><use x="204" y="45" xlink:href="#B"/><use x="127.4" y="25.5" xlink:href="#U"/><path d="M242.3 409.3a11.29 11.29 0 0 0-11.3 11.3c0 6.3 5 11.2 11.2 11.2s11.2-5 11.2-11.2c.2-6.3-4.9-11.3-11.1-11.3zm5.7 17.8c-1 0-1.7-.8-1.7-1.7 0-.6.3-1.1.8-1.4l-1.3-2.6c-.2.1-.4.1-.6.1s-.4 0-.6-.1l-1.3 2.5c.5.3.8.8.8 1.4 0 1-.8 1.7-1.7 1.7-1 0-1.7-.8-1.7-1.7a1.75 1.75 0 0 1 .7-1.4l-1.4-2.6c-.2.1-.4.1-.6.1-.1 0-.3 0-.5-.1l-1.3 2.5a1.75 1.75 0 0 1 .7 1.4c0 1-.8 1.7-1.7 1.7-1 0-1.7-.8-1.7-1.7s.8-1.7 1.7-1.7c.2 0 .4 0 .6.1l1.3-2.5c-.5-.3-.8-.8-.8-1.5 0-1 .8-1.7 1.7-1.7.3 0 .5.1.7.1l1.3-2.6a1.75 1.75 0 0 1-.7-1.4c0-1 .8-1.7 1.7-1.7 1 0 1.7.8 1.7 1.7 0 .6-.3 1.1-.8 1.4l1.3 2.5c.2-.1.3-.1.5-.1 1 0 1.7.8 1.7 1.7a1.75 1.75 0 0 1-.7 1.4l1.3 2.6c.2-.1.4-.1.6-.1 1 0 1.7.8 1.7 1.7 0 1.3-.7 2-1.7 2z"/><use y="51" xlink:href="#P"/><use y="52.7" xlink:href="#P"/><use x="254.9" y="51" xlink:href="#C"/><use x="203.9" y="51" xlink:href="#G"/><use y="51" xlink:href="#Q"/><use y="45" xlink:href="#P"/><use x="254.9" xlink:href="#F"/><path d="M293.3 358.3a11.29 11.29 0 0 0-11.3 11.3c0 6.2 5 11.2 11.2 11.2s11.2-5 11.2-11.2c.1-6.3-4.9-11.3-11.1-11.3zm5.7 17.9c-1 0-1.7-.8-1.7-1.7 0-.6.3-1.1.8-1.4l-1.3-2.6c-.2.1-.4.1-.6.1s-.4 0-.6-.1l-1.3 2.5c.5.3.8.8.8 1.4 0 1-.8 1.7-1.7 1.7-1 0-1.7-.8-1.7-1.7a1.75 1.75 0 0 1 .7-1.4l-1.4-2.6c-.2.1-.4.1-.6.1-.1 0-.3 0-.5-.1l-1.3 2.5a1.75 1.75 0 0 1 .7 1.4c0 1-.8 1.7-1.7 1.7-1 0-1.7-.8-1.7-1.7 0-1 .8-1.7 1.7-1.7.2 0 .4 0 .6.1l1.3-2.5c-.5-.3-.8-.8-.8-1.5 0-1 .8-1.7 1.7-1.7.3 0 .5.1.7.1l1.3-2.6a1.75 1.75 0 0 1-.7-1.4c0-1 .8-1.7 1.7-1.7s1.7.8 1.7 1.7c0 .6-.3 1.1-.8 1.4l1.3 2.5c.2-.1.3-.1.5-.1 1 0 1.7.8 1.7 1.7a1.75 1.75 0 0 1-.7 1.4l1.3 2.6c.2-.1.4-.1.6-.1 1 0 1.7.8 1.7 1.7 0 1.2-.8 2-1.7 2z"/><use x="305.9" xlink:href="#B"/><use x="305.9" y="1.7" xlink:href="#B"/><use x="305.9" xlink:href="#C"/><use x="254.9" xlink:href="#G"/><use xlink:href="#d"/><use x="305.9" y="-6" xlink:href="#B"/><use x="305.9" xlink:href="#F"/><path d="M344.3 358.3a11.29 11.29 0 0 0-11.3 11.3c0 6.2 5 11.2 11.2 11.2s11.2-5 11.2-11.2c.1-6.3-4.9-11.3-11.1-11.3zm5.7 17.9c-1 0-1.7-.8-1.7-1.7 0-.6.3-1.1.8-1.4l-1.3-2.6c-.2.1-.4.1-.6.1s-.4 0-.6-.1l-1.3 2.5c.5.3.8.8.8 1.4 0 1-.8 1.7-1.7 1.7-1 0-1.7-.8-1.7-1.7a1.75 1.75 0 0 1 .7-1.4l-1.4-2.6c-.2.1-.4.1-.6.1-.1 0-.3 0-.5-.1l-1.3 2.5a1.75 1.75 0 0 1 .7 1.4c0 1-.8 1.7-1.7 1.7-1 0-1.7-.8-1.7-1.7 0-1 .8-1.7 1.7-1.7.2 0 .4 0 .6.1l1.3-2.5c-.5-.3-.8-.8-.8-1.5 0-1 .8-1.7 1.7-1.7.3 0 .5.1.7.1l1.3-2.6a1.75 1.75 0 0 1-.7-1.4c0-1 .8-1.7 1.7-1.7 1 0 1.7.8 1.7 1.7 0 .6-.3 1.1-.8 1.4l1.3 2.5c.2-.1.3-.1.5-.1 1 0 1.7.8 1.7 1.7a1.75 1.75 0 0 1-.7 1.4l1.3 2.6c.2-.1.4-.1.6-.1 1 0 1.7.8 1.7 1.7 0 1.2-.8 2-1.7 2z"/><use x="356.9" xlink:href="#B"/><use x="356.9" y="1.7" xlink:href="#B"/><use x="356.9" xlink:href="#C"/><use x="305.9" xlink:href="#G"/><use x="305.9" xlink:href="#H"/><use x="356.9" y="-6" xlink:href="#B"/><use x="356.9" xlink:href="#F"/><path d="M395.2 358.3a11.29 11.29 0 0 0-11.3 11.3c0 6.2 5 11.2 11.2 11.2s11.2-5 11.2-11.2c.2-6.3-4.8-11.3-11.1-11.3zm5.8 17.9c-1 0-1.7-.8-1.7-1.7 0-.6.3-1.1.8-1.4l-1.3-2.6c-.2.1-.4.1-.6.1s-.4 0-.6-.1l-1.3 2.5c.5.3.8.8.8 1.4 0 1-.8 1.7-1.7 1.7s-1.7-.8-1.7-1.7a1.75 1.75 0 0 1 .7-1.4l-1.4-2.6c-.2.1-.4.1-.6.1-.1 0-.3 0-.5-.1l-1.3 2.5a1.75 1.75 0 0 1 .7 1.4c0 1-.8 1.7-1.7 1.7s-1.7-.8-1.7-1.7c0-1 .8-1.7 1.7-1.7.2 0 .4 0 .6.1l1.3-2.5c-.5-.3-.8-.8-.8-1.5 0-1 .8-1.7 1.7-1.7.3 0 .5.1.7.1l1.3-2.6a1.75 1.75 0 0 1-.7-1.4c0-1 .8-1.7 1.7-1.7s1.7.8 1.7 1.7c0 .6-.3 1.1-.8 1.4l1.3 2.5c.2-.1.3-.1.5-.1 1 0 1.7.8 1.7 1.7a1.75 1.75 0 0 1-.7 1.4l1.3 2.6c.2-.1.4-.1.6-.1 1 0 1.7.8 1.7 1.7 0 1.2-.8 2-1.7 2z"/><use x="407.9" xlink:href="#B"/><use x="407.9" y="1.7" xlink:href="#B"/><use x="407.9" xlink:href="#C"/><use x="356.9" xlink:href="#G"/><use xlink:href="#e"/><use x="407.9" y="-6" xlink:href="#B"/><use x="254.9" xlink:href="#N"/><path d="M446.3 358.3a11.29 11.29 0 0 0-11.3 11.3c0 6.2 5 11.2 11.2 11.2s11.2-5 11.2-11.2c.1-6.3-5-11.3-11.1-11.3zm5.6 17.9c-1 0-1.7-.8-1.7-1.7 0-.6.3-1.1.8-1.4l-1.3-2.6c-.2.1-.4.1-.6.1s-.4 0-.6-.1l-1.3 2.5c.5.3.8.8.8 1.4 0 1-.8 1.7-1.7 1.7s-1.7-.8-1.7-1.7a1.75 1.75 0 0 1 .7-1.4l-1.4-2.6c-.2.1-.4.1-.6.1-.1 0-.3 0-.5-.1l-1.3 2.5a1.75 1.75 0 0 1 .7 1.4c0 1-.8 1.7-1.7 1.7-1 0-1.7-.8-1.7-1.7 0-1 .8-1.7 1.7-1.7.2 0 .4 0 .6.1l1.3-2.5c-.5-.3-.8-.8-.8-1.5 0-1 .8-1.7 1.7-1.7.3 0 .5.1.7.1l1.3-2.6a1.75 1.75 0 0 1-.7-1.4c0-1 .8-1.7 1.7-1.7 1 0 1.7.8 1.7 1.7 0 .6-.3 1.1-.8 1.4l1.3 2.5c.2-.1.3-.1.5-.1 1 0 1.7.8 1.7 1.7a1.75 1.75 0 0 1-.7 1.4l1.3 2.6c.2-.1.4-.1.6-.1 1 0 1.7.8 1.7 1.7.1 1.2-.7 2-1.7 2z"/><use x="458.9" xlink:href="#B"/><use x="458.9" y="1.7" xlink:href="#B"/><use x="458.9" xlink:href="#C"/><use x="407.9" xlink:href="#G"/><use x="356.9" xlink:href="#K"/><use x="458.9" y="-6" xlink:href="#B"/><use x="305.9" xlink:href="#N"/><path d="M497.2 358.3a11.29 11.29 0 0 0-11.3 11.3c0 6.2 5 11.2 11.2 11.2s11.2-5 11.2-11.2c.2-6.3-4.8-11.3-11.1-11.3zm5.7 17.9c-1 0-1.7-.8-1.7-1.7 0-.6.3-1.1.8-1.4l-1.3-2.6c-.2.1-.4.1-.6.1s-.4 0-.6-.1l-1.3 2.5c.5.3.8.8.8 1.4 0 1-.8 1.7-1.7 1.7s-1.7-.8-1.7-1.7a1.75 1.75 0 0 1 .7-1.4l-1.4-2.6c-.2.1-.4.1-.6.1-.1 0-.3 0-.5-.1l-1.3 2.5a1.75 1.75 0 0 1 .7 1.4c0 1-.8 1.7-1.7 1.7s-1.7-.8-1.7-1.7c0-1 .8-1.7 1.7-1.7.2 0 .4 0 .6.1l1.3-2.5c-.5-.3-.8-.8-.8-1.5 0-1 .8-1.7 1.7-1.7.3 0 .5.1.7.1l1.3-2.6a1.75 1.75 0 0 1-.7-1.4c0-1 .8-1.7 1.7-1.7s1.7.8 1.7 1.7c0 .6-.3 1.1-.8 1.4l1.3 2.5c.2-.1.3-.1.5-.1 1 0 1.7.8 1.7 1.7a1.75 1.75 0 0 1-.7 1.4l1.3 2.6c.2-.1.4-.1.6-.1 1 0 1.7.8 1.7 1.7.1 1.2-.7 2-1.7 2z"/><use x="509.9" xlink:href="#B"/><use x="509.9" y="1.7" xlink:href="#B"/><use x="509.8" xlink:href="#C"/><use x="458.8" xlink:href="#G"/><use x="305.9" xlink:href="#O"/><use x="509.9" y="-6" xlink:href="#B"/><use xlink:href="#f"/><use y="1.7" xlink:href="#f"/><use x="280.4" y="25.5" xlink:href="#C"/><use x="229.4" y="25.5" xlink:href="#G"/><use x="25.5" y="25.5" xlink:href="#Q"/><use y="-6" xlink:href="#f"/><use x="203.9" xlink:href="#U"/><path d="M318.8 383.8a11.29 11.29 0 0 0-11.3 11.3c0 6.3 5 11.2 11.2 11.2s11.2-5 11.2-11.2c.1-6.3-4.9-11.3-11.1-11.3zm5.7 17.8c-1 0-1.7-.8-1.7-1.7 0-.6.3-1.1.8-1.4l-1.3-2.6c-.2.1-.4.1-.6.1s-.4 0-.6-.1l-1.3 2.5c.5.3.8.8.8 1.4 0 1-.8 1.7-1.7 1.7s-1.7-.8-1.7-1.7a1.75 1.75 0 0 1 .7-1.4l-1.4-2.6c-.2.1-.4.1-.6.1-.1 0-.3 0-.5-.1l-1.3 2.5a1.75 1.75 0 0 1 .7 1.4c0 1-.8 1.7-1.7 1.7s-1.7-.8-1.7-1.7c0-1 .8-1.7 1.7-1.7.2 0 .4 0 .6.1l1.3-2.5c-.5-.3-.8-.8-.8-1.5 0-1 .8-1.7 1.7-1.7.3 0 .5.1.7.1l1.3-2.6a1.75 1.75 0 0 1-.7-1.4c0-1 .8-1.7 1.7-1.7 1 0 1.7.8 1.7 1.7 0 .6-.3 1.1-.8 1.4l1.3 2.5c.2-.1.3-.1.5-.1 1 0 1.7.8 1.7 1.7a1.75 1.75 0 0 1-.7 1.4l1.3 2.6c.2-.1.4-.1.6-.1 1 0 1.7.8 1.7 1.7 0 1.3-.8 2-1.7 2z"/><use xlink:href="#g"/><use y="1.7" xlink:href="#g"/><use x="331.4" y="25.5" xlink:href="#C"/><use x="280.4" y="25.5" xlink:href="#G"/><use x="76.5" y="25.5" xlink:href="#Q"/><use y="-6" xlink:href="#g"/><use x="305.9" xlink:href="#R"/><use xlink:href="#h"/><use xlink:href="#i"/><use y="1.7" xlink:href="#i"/><use x="382.4" y="25.5" xlink:href="#C"/><use x="331.4" y="25.5" xlink:href="#G"/><use x="280.4" y="25.5" xlink:href="#K"/><use y="-6" xlink:href="#i"/><use x="305.9" xlink:href="#U"/><use xlink:href="#j"/><use xlink:href="#k"/><use y="1.7" xlink:href="#k"/><use x="433.4" y="25.5" xlink:href="#C"/><use x="382.4" y="25.5" xlink:href="#G"/><use x="331.4" y="25.5" xlink:href="#K"/><use y="-6" xlink:href="#k"/><use x="305.9" xlink:href="#W"/><use x="356.9" xlink:href="#V"/><use xlink:href="#l"/><use y="1.7" xlink:href="#l"/><use x="305.9" xlink:href="#X"/><use x="433.4" y="25.5" xlink:href="#G"/><use x="280.4" y="25.5" xlink:href="#O"/><use y="-6" xlink:href="#l"/><use x="407.8" xlink:href="#U"/><path d="M522.7 383.8a11.29 11.29 0 0 0-11.3 11.3c0 6.3 5 11.2 11.2 11.2s11.2-5 11.2-11.2c.2-6.3-4.9-11.3-11.1-11.3zm5.7 17.8c-1 0-1.7-.8-1.7-1.7 0-.6.3-1.1.8-1.4l-1.3-2.6c-.2.1-.4.1-.6.1s-.4 0-.6-.1l-1.3 2.5c.5.3.8.8.8 1.4 0 1-.8 1.7-1.7 1.7s-1.7-.8-1.7-1.7a1.75 1.75 0 0 1 .7-1.4l-1.4-2.6c-.2.1-.4.1-.6.1-.1 0-.3 0-.5-.1l-1.3 2.5a1.75 1.75 0 0 1 .7 1.4c0 1-.8 1.7-1.7 1.7s-1.7-.8-1.7-1.7c0-1 .8-1.7 1.7-1.7.2 0 .4 0 .6.1l1.3-2.5c-.5-.3-.8-.8-.8-1.5 0-1 .8-1.7 1.7-1.7.3 0 .5.1.7.1l1.3-2.6a1.75 1.75 0 0 1-.7-1.4c0-1 .8-1.7 1.7-1.7s1.7.8 1.7 1.7c0 .6-.3 1.1-.8 1.4l1.3 2.5c.2-.1.3-.1.5-.1 1 0 1.7.8 1.7 1.7a1.75 1.75 0 0 1-.7 1.4l1.3 2.6c.2-.1.4-.1.6-.1 1 0 1.7.8 1.7 1.7 0 1.3-.7 2-1.7 2z"/><use x="178.4" y="25.5" xlink:href="#U"/><path d="M293.3 409.3a11.29 11.29 0 0 0-11.3 11.3c0 6.3 5 11.2 11.2 11.2s11.2-5 11.2-11.2c.1-6.3-4.9-11.3-11.1-11.3zm5.7 17.8c-1 0-1.7-.8-1.7-1.7 0-.6.3-1.1.8-1.4l-1.3-2.6c-.2.1-.4.1-.6.1s-.4 0-.6-.1l-1.3 2.5c.5.3.8.8.8 1.4 0 1-.8 1.7-1.7 1.7-1 0-1.7-.8-1.7-1.7a1.75 1.75 0 0 1 .7-1.4l-1.4-2.6c-.2.1-.4.1-.6.1-.1 0-.3 0-.5-.1l-1.3 2.5a1.75 1.75 0 0 1 .7 1.4c0 1-.8 1.7-1.7 1.7-1 0-1.7-.8-1.7-1.7s.8-1.7 1.7-1.7c.2 0 .4 0 .6.1l1.3-2.5c-.5-.3-.8-.8-.8-1.5 0-1 .8-1.7 1.7-1.7.3 0 .5.1.7.1l1.3-2.6a1.75 1.75 0 0 1-.7-1.4c0-1 .8-1.7 1.7-1.7s1.7.8 1.7 1.7c0 .6-.3 1.1-.8 1.4l1.3 2.5c.2-.1.3-.1.5-.1 1 0 1.7.8 1.7 1.7a1.75 1.75 0 0 1-.7 1.4l1.3 2.6c.2-.1.4-.1.6-.1 1 0 1.7.8 1.7 1.7 0 1.3-.8 2-1.7 2z"/><use x="305.9" y="51" xlink:href="#B"/><use x="305.9" y="52.7" xlink:href="#B"/><use x="305.9" y="51" xlink:href="#C"/><use x="254.9" y="51" xlink:href="#G"/><use y="51" xlink:href="#d"/><use x="305.9" y="45" xlink:href="#B"/><use x="229.4" y="25.5" xlink:href="#U"/><path d="M344.3 409.3a11.29 11.29 0 0 0-11.3 11.3c0 6.3 5 11.2 11.2 11.2s11.2-5 11.2-11.2c.1-6.3-4.9-11.3-11.1-11.3zm5.7 17.8c-1 0-1.7-.8-1.7-1.7 0-.6.3-1.1.8-1.4l-1.3-2.6c-.2.1-.4.1-.6.1s-.4 0-.6-.1l-1.3 2.5c.5.3.8.8.8 1.4 0 1-.8 1.7-1.7 1.7-1 0-1.7-.8-1.7-1.7a1.75 1.75 0 0 1 .7-1.4l-1.4-2.6c-.2.1-.4.1-.6.1-.1 0-.3 0-.5-.1l-1.3 2.5a1.75 1.75 0 0 1 .7 1.4c0 1-.8 1.7-1.7 1.7-1 0-1.7-.8-1.7-1.7s.8-1.7 1.7-1.7c.2 0 .4 0 .6.1l1.3-2.5c-.5-.3-.8-.8-.8-1.5 0-1 .8-1.7 1.7-1.7.3 0 .5.1.7.1l1.3-2.6a1.75 1.75 0 0 1-.7-1.4c0-1 .8-1.7 1.7-1.7 1 0 1.7.8 1.7 1.7 0 .6-.3 1.1-.8 1.4l1.3 2.5c.2-.1.3-.1.5-.1 1 0 1.7.8 1.7 1.7a1.75 1.75 0 0 1-.7 1.4l1.3 2.6c.2-.1.4-.1.6-.1 1 0 1.7.8 1.7 1.7 0 1.3-.8 2-1.7 2z"/><use x="356.9" y="51" xlink:href="#B"/><use x="356.9" y="52.7" xlink:href="#B"/><use x="356.9" y="51" xlink:href="#C"/><use x="305.9" y="51" xlink:href="#G"/><use x="305.9" xlink:href="#a"/><use x="356.9" y="45" xlink:href="#B"/><use x="280.4" y="25.5" xlink:href="#U"/><path d="M395.2 409.3a11.29 11.29 0 0 0-11.3 11.3c0 6.3 5 11.2 11.2 11.2s11.2-5 11.2-11.2c.2-6.3-4.8-11.3-11.1-11.3zm5.8 17.8c-1 0-1.7-.8-1.7-1.7 0-.6.3-1.1.8-1.4l-1.3-2.6c-.2.1-.4.1-.6.1s-.4 0-.6-.1l-1.3 2.5c.5.3.8.8.8 1.4 0 1-.8 1.7-1.7 1.7s-1.7-.8-1.7-1.7a1.75 1.75 0 0 1 .7-1.4l-1.4-2.6c-.2.1-.4.1-.6.1-.1 0-.3 0-.5-.1l-1.3 2.5a1.75 1.75 0 0 1 .7 1.4c0 1-.8 1.7-1.7 1.7s-1.7-.8-1.7-1.7.8-1.7 1.7-1.7c.2 0 .4 0 .6.1l1.3-2.5c-.5-.3-.8-.8-.8-1.5 0-1 .8-1.7 1.7-1.7.3 0 .5.1.7.1l1.3-2.6a1.75 1.75 0 0 1-.7-1.4c0-1 .8-1.7 1.7-1.7s1.7.8 1.7 1.7c0 .6-.3 1.1-.8 1.4l1.3 2.5c.2-.1.3-.1.5-.1 1 0 1.7.8 1.7 1.7a1.75 1.75 0 0 1-.7 1.4l1.3 2.6c.2-.1.4-.1.6-.1 1 0 1.7.8 1.7 1.7 0 1.3-.8 2-1.7 2z"/><use x="407.9" y="51" xlink:href="#B"/><use x="407.9" y="52.7" xlink:href="#B"/><use x="407.9" y="51" xlink:href="#C"/><use x="356.9" y="51" xlink:href="#G"/><use y="51" xlink:href="#e"/><use x="407.9" y="45" xlink:href="#B"/><use x="280.4" y="25.5" xlink:href="#W"/><path d="M446.3 409.3a11.29 11.29 0 0 0-11.3 11.3c0 6.3 5 11.2 11.2 11.2s11.2-5 11.2-11.2c.1-6.3-5-11.3-11.1-11.3zm5.6 17.8c-1 0-1.7-.8-1.7-1.7 0-.6.3-1.1.8-1.4l-1.3-2.6c-.2.1-.4.1-.6.1s-.4 0-.6-.1l-1.3 2.5c.5.3.8.8.8 1.4 0 1-.8 1.7-1.7 1.7s-1.7-.8-1.7-1.7a1.75 1.75 0 0 1 .7-1.4l-1.4-2.6c-.2.1-.4.1-.6.1-.1 0-.3 0-.5-.1l-1.3 2.5a1.75 1.75 0 0 1 .7 1.4c0 1-.8 1.7-1.7 1.7-1 0-1.7-.8-1.7-1.7s.8-1.7 1.7-1.7c.2 0 .4 0 .6.1l1.3-2.5c-.5-.3-.8-.8-.8-1.5 0-1 .8-1.7 1.7-1.7.3 0 .5.1.7.1l1.3-2.6a1.75 1.75 0 0 1-.7-1.4c0-1 .8-1.7 1.7-1.7 1 0 1.7.8 1.7 1.7 0 .6-.3 1.1-.8 1.4l1.3 2.5c.2-.1.3-.1.5-.1 1 0 1.7.8 1.7 1.7a1.75 1.75 0 0 1-.7 1.4l1.3 2.6c.2-.1.4-.1.6-.1 1 0 1.7.8 1.7 1.7.1 1.3-.7 2-1.7 2z"/><use x="458.9" y="51" xlink:href="#B"/><use x="458.9" y="52.7" xlink:href="#B"/><use x="458.9" y="51" xlink:href="#C"/><use x="407.9" y="51" xlink:href="#G"/><use x="356.9" xlink:href="#b"/><use x="458.9" y="45" xlink:href="#B"/><use x="331.4" y="25.5" xlink:href="#W"/><path d="M497.2 409.3a11.29 11.29 0 0 0-11.3 11.3c0 6.3 5 11.2 11.2 11.2s11.2-5 11.2-11.2c.2-6.3-4.8-11.3-11.1-11.3zm5.7 17.8c-1 0-1.7-.8-1.7-1.7 0-.6.3-1.1.8-1.4l-1.3-2.6c-.2.1-.4.1-.6.1s-.4 0-.6-.1l-1.3 2.5c.5.3.8.8.8 1.4 0 1-.8 1.7-1.7 1.7s-1.7-.8-1.7-1.7a1.75 1.75 0 0 1 .7-1.4l-1.4-2.6c-.2.1-.4.1-.6.1-.1 0-.3 0-.5-.1l-1.3 2.5a1.75 1.75 0 0 1 .7 1.4c0 1-.8 1.7-1.7 1.7s-1.7-.8-1.7-1.7.8-1.7 1.7-1.7c.2 0 .4 0 .6.1l1.3-2.5c-.5-.3-.8-.8-.8-1.5 0-1 .8-1.7 1.7-1.7.3 0 .5.1.7.1l1.3-2.6a1.75 1.75 0 0 1-.7-1.4c0-1 .8-1.7 1.7-1.7s1.7.8 1.7 1.7c0 .6-.3 1.1-.8 1.4l1.3 2.5c.2-.1.3-.1.5-.1 1 0 1.7.8 1.7 1.7a1.75 1.75 0 0 1-.7 1.4l1.3 2.6c.2-.1.4-.1.6-.1 1 0 1.7.8 1.7 1.7.1 1.3-.7 2-1.7 2z"/><use x="509.9" y="51" xlink:href="#B"/><use x="509.9" y="52.7" xlink:href="#B"/><use x="509.8" y="51" xlink:href="#C"/><use x="458.8" y="51" xlink:href="#G"/><use x="305.9" y="51" xlink:href="#O"/><use x="509.9" y="45" xlink:href="#B"/><use x="509.8" xlink:href="#F"/><use xlink:href="#m"/><use x="280.4" y="-25.5" xlink:href="#f"/><use x="280.4" y="-23.8" xlink:href="#f"/><use x="560.8" xlink:href="#C"/><use x="509.9" xlink:href="#G"/><use x="305.9" xlink:href="#Q"/><use x="280.4" y="-31.5" xlink:href="#f"/><use x="560.8" xlink:href="#F"/><path d="M599.2 358.3a11.29 11.29 0 0 0-11.3 11.3c0 6.2 5 11.2 11.2 11.2s11.2-5 11.2-11.2c.2-6.3-4.9-11.3-11.1-11.3zm5.7 17.9c-1 0-1.7-.8-1.7-1.7 0-.6.3-1.1.8-1.4l-1.3-2.6c-.2.1-.4.1-.6.1s-.4 0-.6-.1l-1.3 2.5c.5.3.8.8.8 1.4 0 1-.8 1.7-1.7 1.7s-1.7-.8-1.7-1.7a1.75 1.75 0 0 1 .7-1.4l-1.4-2.6c-.2.1-.4.1-.6.1-.1 0-.3 0-.5-.1l-1.3 2.5a1.75 1.75 0 0 1 .7 1.4c0 1-.8 1.7-1.7 1.7s-1.7-.8-1.7-1.7c0-1 .8-1.7 1.7-1.7.2 0 .4 0 .6.1l1.3-2.5c-.5-.3-.8-.8-.8-1.5 0-1 .8-1.7 1.7-1.7.3 0 .5.1.7.1l1.3-2.6a1.75 1.75 0 0 1-.7-1.4c0-1 .8-1.7 1.7-1.7s1.7.8 1.7 1.7c0 .6-.3 1.1-.8 1.4l1.3 2.5c.2-.1.3-.1.5-.1 1 0 1.7.8 1.7 1.7a1.75 1.75 0 0 1-.7 1.4l1.3 2.6c.2-.1.4-.1.6-.1 1 0 1.7.8 1.7 1.7 0 1.2-.8 2-1.7 2z"/><use xlink:href="#n"/><use y="1.7" xlink:href="#n"/><path d="M546.4 391.2h-1c-.1 0-.2-.1-.2-.2v-1c0-.1-.1-.2-.2-.2h-.4c-.1 0-.2.1-.2.2v1c0 .1-.1.2-.2.2h-1c-.1 0-.2.1-.2.2v.4c0 .1.1.2.2.2h1c.1 0 .2.1.2.2v1c0 .1.1.2.2.2h.4c.1 0 .2-.1.2-.2v-1c0-.1.1-.2.2-.2h1c.1 0 .2-.1.2-.2v-.4c.1-.1-.1-.2-.2-.2zm-.2 6.4c.1-.1.1-.2 0-.3l-.2-.3c-.1-.1-.2-.1-.3 0l-.7.7c-.1.1-.2.1-.3 0l-.7-.7c-.1-.1-.2-.1-.3 0l-.3.3c-.1.1-.1.2 0 .3l.7.7c.1.1.1.2 0 .3l-.7.7c-.1.1-.1.2 0 .3l.3.3c.1.1.2.1.3 0l.7-.7c.1-.1.2-.1.3 0l.7.7c.1.1.2.1.3 0l.3-.3c.1-.1.1-.2 0-.3l-.7-.7c-.1-.1-.1-.2 0-.3l.6-.7z"/><use x="331.4" y="25.5" xlink:href="#O"/><use y="-6" xlink:href="#n"/><use x="458.8" xlink:href="#U"/><path d="M573.7 383.8a11.29 11.29 0 0 0-11.3 11.3c0 6.3 5 11.2 11.2 11.2s11.2-5 11.2-11.2c.1-6.3-4.9-11.3-11.1-11.3zm5.7 17.8c-1 0-1.7-.8-1.7-1.7 0-.6.3-1.1.8-1.4l-1.3-2.6c-.2.1-.4.1-.6.1s-.4 0-.6-.1l-1.3 2.5c.5.3.8.8.8 1.4 0 1-.8 1.7-1.7 1.7s-1.7-.8-1.7-1.7a1.75 1.75 0 0 1 .7-1.4l-1.4-2.6c-.2.1-.4.1-.6.1-.1 0-.3 0-.5-.1l-1.3 2.5a1.75 1.75 0 0 1 .7 1.4c0 1-.8 1.7-1.7 1.7s-1.7-.8-1.7-1.7c0-1 .8-1.7 1.7-1.7.2 0 .4 0 .6.1l1.3-2.5c-.5-.3-.8-.8-.8-1.5 0-1 .8-1.7 1.7-1.7.3 0 .5.1.7.1l1.3-2.6a1.75 1.75 0 0 1-.7-1.4c0-1 .8-1.7 1.7-1.7s1.7.8 1.7 1.7c0 .6-.3 1.1-.8 1.4l1.3 2.5c.2-.1.3-.1.5-.1 1 0 1.7.8 1.7 1.7a1.75 1.75 0 0 1-.7 1.4l1.3 2.6c.2-.1.4-.1.6-.1 1 0 1.7.8 1.7 1.7.1 1.3-.7 2-1.7 2z"/><use xlink:href="#o"/><use y="1.7" xlink:href="#o"/><use x="586.3" y="25.5" xlink:href="#C"/><use x="535.3" y="25.5" xlink:href="#G"/><use x="331.4" y="25.5" xlink:href="#Q"/><use y="-6" xlink:href="#o"/><use x="433.3" y="25.5" xlink:href="#U"/><use xlink:href="#p"/><use x="280.4" y="25.5" xlink:href="#f"/><use x="280.4" y="27.2" xlink:href="#f"/><use x="560.8" y="51" xlink:href="#C"/><use x="509.9" y="51" xlink:href="#G"/><use x="305.9" y="51" xlink:href="#Q"/><use x="280.4" y="19.5" xlink:href="#f"/><use x="484.3" y="25.5" xlink:href="#U"/><path d="M599.2 409.3a11.29 11.29 0 0 0-11.3 11.3c0 6.3 5 11.2 11.2 11.2s11.2-5 11.2-11.2c.2-6.3-4.9-11.3-11.1-11.3zm5.7 17.8c-1 0-1.7-.8-1.7-1.7 0-.6.3-1.1.8-1.4l-1.3-2.6c-.2.1-.4.1-.6.1s-.4 0-.6-.1l-1.3 2.5c.5.3.8.8.8 1.4 0 1-.8 1.7-1.7 1.7s-1.7-.8-1.7-1.7a1.75 1.75 0 0 1 .7-1.4l-1.4-2.6c-.2.1-.4.1-.6.1-.1 0-.3 0-.5-.1l-1.3 2.5a1.75 1.75 0 0 1 .7 1.4c0 1-.8 1.7-1.7 1.7s-1.7-.8-1.7-1.7.8-1.7 1.7-1.7c.2 0 .4 0 .6.1l1.3-2.5c-.5-.3-.8-.8-.8-1.5 0-1 .8-1.7 1.7-1.7.3 0 .5.1.7.1l1.3-2.6a1.75 1.75 0 0 1-.7-1.4c0-1 .8-1.7 1.7-1.7s1.7.8 1.7 1.7c0 .6-.3 1.1-.8 1.4l1.3 2.5c.2-.1.3-.1.5-.1 1 0 1.7.8 1.7 1.7a1.75 1.75 0 0 1-.7 1.4l1.3 2.6c.2-.1.4-.1.6-.1 1 0 1.7.8 1.7 1.7 0 1.3-.8 2-1.7 2z"/><use x="331.4" y="-25.5" xlink:href="#f"/><use x="331.4" y="-23.8" xlink:href="#f"/><use x="611.8" xlink:href="#C"/><use x="560.8" xlink:href="#G"/><use x="356.9" xlink:href="#Q"/><use x="331.4" y="-31.5" xlink:href="#f"/><use x="611.8" xlink:href="#F"/><use x="102" xlink:href="#m"/><use x="662.8" xlink:href="#B"/><use x="662.8" y="1.7" xlink:href="#B"/><use x="662.8" xlink:href="#C"/><use x="611.8" xlink:href="#G"/><use x="407.9" xlink:href="#Q"/><use x="662.8" y="-6" xlink:href="#B"/><use x="662.8" xlink:href="#F"/><path d="M701.2 358.3a11.29 11.29 0 0 0-11.3 11.3c0 6.2 5 11.2 11.2 11.2s11.2-5 11.2-11.2c.1-6.3-4.9-11.3-11.1-11.3zm5.7 17.9c-1 0-1.7-.8-1.7-1.7 0-.6.3-1.1.8-1.4l-1.3-2.6c-.2.1-.4.1-.6.1s-.4 0-.6-.1l-1.3 2.5c.5.3.8.8.8 1.4 0 1-.8 1.7-1.7 1.7s-1.7-.8-1.7-1.7a1.75 1.75 0 0 1 .7-1.4l-1.4-2.6c-.2.1-.4.1-.6.1-.1 0-.3 0-.5-.1l-1.3 2.5a1.75 1.75 0 0 1 .7 1.4c0 1-.8 1.7-1.7 1.7s-1.7-.8-1.7-1.7c0-1 .8-1.7 1.7-1.7.2 0 .4 0 .6.1l1.3-2.5c-.5-.3-.8-.8-.8-1.5 0-1 .8-1.7 1.7-1.7.3 0 .5.1.7.1l1.3-2.6a1.75 1.75 0 0 1-.7-1.4c0-1 .8-1.7 1.7-1.7 1 0 1.7.8 1.7 1.7 0 .6-.3 1.1-.8 1.4l1.3 2.5c.2-.1.3-.1.5-.1 1 0 1.7.8 1.7 1.7a1.75 1.75 0 0 1-.7 1.4l1.3 2.6c.2-.1.4-.1.6-.1 1 0 1.7.8 1.7 1.7 0 1.2-.8 2-1.7 2z"/><use x="713.8" xlink:href="#B"/><use x="713.8" y="1.7" xlink:href="#B"/><use xlink:href="#q"/><use x="662.8" xlink:href="#G"/><use x="407.9" xlink:href="#d"/><use x="713.8" y="-6" xlink:href="#B"/><use x="713.8" xlink:href="#F"/><path d="M752.2 358.3a11.29 11.29 0 0 0-11.3 11.3c0 6.2 5 11.2 11.2 11.2s11.2-5 11.2-11.2c.1-6.3-4.9-11.3-11.1-11.3zm5.6 17.9c-1 0-1.7-.8-1.7-1.7 0-.6.3-1.1.8-1.4l-1.3-2.6c-.2.1-.4.1-.6.1s-.4 0-.6-.1l-1.3 2.5c.5.3.8.8.8 1.4 0 1-.8 1.7-1.7 1.7-1 0-1.7-.8-1.7-1.7a1.75 1.75 0 0 1 .7-1.4l-1.4-2.6c-.2.1-.4.1-.6.1-.1 0-.3 0-.5-.1l-1.3 2.5a1.75 1.75 0 0 1 .7 1.4c0 1-.8 1.7-1.7 1.7s-1.7-.8-1.7-1.7c0-1 .8-1.7 1.7-1.7.2 0 .4 0 .6.1l1.3-2.5c-.5-.3-.8-.8-.8-1.5 0-1 .8-1.7 1.7-1.7.3 0 .5.1.7.1l1.3-2.6a1.75 1.75 0 0 1-.7-1.4c0-1 .8-1.7 1.7-1.7 1 0 1.7.8 1.7 1.7 0 .6-.3 1.1-.8 1.4l1.3 2.5c.2-.1.3-.1.5-.1 1 0 1.7.8 1.7 1.7a1.75 1.75 0 0 1-.7 1.4l1.3 2.6c.2-.1.4-.1.6-.1 1 0 1.7.8 1.7 1.7.1 1.2-.7 2-1.7 2z"/><use x="764.8" xlink:href="#B"/><use x="764.8" y="1.7" xlink:href="#B"/><use x="51" xlink:href="#q"/><use x="713.8" xlink:href="#G"/><use x="713.8" xlink:href="#H"/><use x="764.8" y="-6" xlink:href="#B"/><use x="713.8" xlink:href="#I"/><path d="M803.1 358.3a11.29 11.29 0 0 0-11.3 11.3c0 6.2 5 11.2 11.2 11.2s11.2-5 11.2-11.2c.2-6.3-4.8-11.3-11.1-11.3zm5.7 17.9c-1 0-1.7-.8-1.7-1.7 0-.6.3-1.1.8-1.4l-1.3-2.6c-.2.1-.4.1-.6.1s-.4 0-.6-.1l-1.3 2.5c.5.3.8.8.8 1.4 0 1-.8 1.7-1.7 1.7s-1.7-.8-1.7-1.7a1.75 1.75 0 0 1 .7-1.4l-1.4-2.6c-.2.1-.4.1-.6.1-.1 0-.3 0-.5-.1l-1.3 2.5a1.75 1.75 0 0 1 .7 1.4c0 1-.8 1.7-1.7 1.7-1 0-1.7-.8-1.7-1.7 0-1 .8-1.7 1.7-1.7.2 0 .4 0 .6.1l1.3-2.5c-.5-.3-.8-.8-.8-1.5 0-1 .8-1.7 1.7-1.7.3 0 .5.1.7.1l1.3-2.6a1.75 1.75 0 0 1-.7-1.4c0-1 .8-1.7 1.7-1.7s1.7.8 1.7 1.7c0 .6-.3 1.1-.8 1.4l1.3 2.5c.2-.1.3-.1.5-.1 1 0 1.7.8 1.7 1.7a1.75 1.75 0 0 1-.7 1.4l1.3 2.6c.2-.1.4-.1.6-.1 1 0 1.7.8 1.7 1.7.1 1.2-.7 2-1.7 2z"/><use x="815.8" xlink:href="#B"/><use x="815.8" y="1.7" xlink:href="#B"/><use xlink:href="#r"/><use x="764.8" xlink:href="#G"/><use x="713.8" xlink:href="#K"/><use x="815.8" y="-6" xlink:href="#B"/><use x="509.8" xlink:href="#U"/><path d="M624.7 383.8a11.29 11.29 0 0 0-11.3 11.3c0 6.3 5 11.2 11.2 11.2s11.2-5 11.2-11.2c.2-6.3-4.9-11.3-11.1-11.3zm5.7 17.8c-1 0-1.7-.8-1.7-1.7 0-.6.3-1.1.8-1.4l-1.3-2.6c-.2.1-.4.1-.6.1s-.4 0-.6-.1l-1.3 2.5c.5.3.8.8.8 1.4 0 1-.8 1.7-1.7 1.7-1 0-1.7-.8-1.7-1.7a1.75 1.75 0 0 1 .7-1.4l-1.4-2.6c-.2.1-.4.1-.6.1-.1 0-.3 0-.5-.1l-1.3 2.5a1.75 1.75 0 0 1 .7 1.4c0 1-.8 1.7-1.7 1.7-1 0-1.7-.8-1.7-1.7 0-1 .8-1.7 1.7-1.7.2 0 .4 0 .6.1l1.3-2.5c-.5-.3-.8-.8-.8-1.5 0-1 .8-1.7 1.7-1.7.3 0 .5.1.7.1l1.3-2.6a1.75 1.75 0 0 1-.7-1.4c0-1 .8-1.7 1.7-1.7s1.7.8 1.7 1.7c0 .6-.3 1.1-.8 1.4l1.3 2.5c.2-.1.3-.1.5-.1 1 0 1.7.8 1.7 1.7a1.75 1.75 0 0 1-.7 1.4l1.3 2.6c.2-.1.4-.1.6-.1 1 0 1.7.8 1.7 1.7 0 1.3-.8 2-1.7 2z"/><use xlink:href="#s"/><use y="1.7" xlink:href="#s"/><use x="637.3" y="25.5" xlink:href="#C"/><use x="586.3" y="25.5" xlink:href="#G"/><path d="M650.2 383.8c-6.2 0-11.2 5-11.2 11.2s5 11.2 11.2 11.2 11.2-5 11.2-11.2-5-11.2-11.2-11.2zm-.6 16.7c0 .5-.4.8-.8.8h-4c-.5 0-.8-.4-.8-.8v-4c0-.5.4-.8.8-.8h4c.5 0 .8.4.8.8v4zm0-6.9c0 .5-.4.8-.8.8h-4c-.5 0-.8-.4-.8-.8v-3.9c0-.5.4-.8.8-.8h4c.5 0 .8.4.8.8v3.9zm6.8 6.9c0 .5-.4.8-.8.8h-4c-.5 0-.8-.4-.8-.8v-4c0-.5.4-.8.8-.8h3.9c.5 0 .8.4.8.8l.1 4h0zm0-6.9c0 .5-.4.8-.8.8h-4c-.5 0-.8-.4-.8-.8v-3.9c0-.5.4-.8.8-.8h3.9c.5 0 .8.4.8.8l.1 3.9h0z"/><use y="-6" xlink:href="#s"/><use x="560.8" xlink:href="#U"/><use x="407.9" xlink:href="#Z"/><use xlink:href="#t"/><use y="1.7" xlink:href="#t"/><use x="688.3" y="25.5" xlink:href="#C"/><use x="637.3" y="25.5" xlink:href="#G"/><use x="433.4" y="25.5" xlink:href="#Q"/><use y="-6" xlink:href="#t"/><use x="611.8" xlink:href="#U"/><use x="356.9" xlink:href="#h"/><use x="739.3" y="25.5" xlink:href="#B"/><use x="739.3" y="27.2" xlink:href="#B"/><use x="739.3" y="25.5" xlink:href="#C"/><use x="688.3" y="25.5" xlink:href="#G"/><use x="484.4" y="25.5" xlink:href="#Q"/><use x="739.3" y="19.5" xlink:href="#B"/><use x="611.8" xlink:href="#W"/><use x="356.9" xlink:href="#j"/><use x="790.3" y="25.5" xlink:href="#B"/><use x="790.3" y="27.2" xlink:href="#B"/><use x="790.3" y="25.5" xlink:href="#C"/><use x="739.3" y="25.5" xlink:href="#G"/><use x="713.8" xlink:href="#T"/><use x="790.3" y="19.5" xlink:href="#B"/><use x="764.8" xlink:href="#R"/><path d="M828.6 383.8a11.29 11.29 0 0 0-11.3 11.3c0 6.3 5 11.2 11.2 11.2s11.2-5 11.2-11.2c.2-6.3-4.8-11.3-11.1-11.3zm5.7 17.8c-1 0-1.7-.8-1.7-1.7 0-.6.3-1.1.8-1.4l-1.3-2.6c-.2.1-.4.1-.6.1s-.4 0-.6-.1l-1.3 2.5c.5.3.8.8.8 1.4 0 1-.8 1.7-1.7 1.7-1 0-1.7-.8-1.7-1.7a1.75 1.75 0 0 1 .7-1.4l-1.4-2.6c-.2.1-.4.1-.6.1-.1 0-.3 0-.5-.1l-1.3 2.5a1.75 1.75 0 0 1 .7 1.4c0 1-.8 1.7-1.7 1.7-1 0-1.7-.8-1.7-1.7 0-1 .8-1.7 1.7-1.7.2 0 .4 0 .6.1l1.3-2.5c-.5-.3-.8-.8-.8-1.5 0-1 .8-1.7 1.7-1.7.3 0 .5.1.7.1l1.3-2.6a1.75 1.75 0 0 1-.7-1.4c0-1 .8-1.7 1.7-1.7s1.7.8 1.7 1.7c0 .6-.3 1.1-.8 1.4l1.3 2.5c.2-.1.3-.1.5-.1 1 0 1.7.8 1.7 1.7a1.75 1.75 0 0 1-.7 1.4l1.3 2.6c.2-.1.4-.1.6-.1 1 0 1.7.8 1.7 1.7.1 1.3-.7 2-1.7 2z"/><use x="331.4" y="25.5" xlink:href="#f"/><use x="331.4" y="27.2" xlink:href="#f"/><use x="611.8" y="51" xlink:href="#C"/><use x="560.8" y="51" xlink:href="#G"/><use x="356.9" y="51" xlink:href="#Q"/><use x="331.4" y="19.5" xlink:href="#f"/><use x="535.3" y="25.5" xlink:href="#U"/><use x="102" xlink:href="#p"/><use x="662.8" y="51" xlink:href="#B"/><use x="662.8" y="52.7" xlink:href="#B"/><use x="662.8" y="51" xlink:href="#C"/><use x="611.8" y="51" xlink:href="#G"/><use x="407.9" y="51" xlink:href="#Q"/><use x="662.8" y="45" xlink:href="#B"/><use x="586.3" y="25.5" xlink:href="#U"/><path d="M701.2 409.3a11.29 11.29 0 0 0-11.3 11.3c0 6.3 5 11.2 11.2 11.2s11.2-5 11.2-11.2c.1-6.3-4.9-11.3-11.1-11.3zm5.7 17.8c-1 0-1.7-.8-1.7-1.7 0-.6.3-1.1.8-1.4l-1.3-2.6c-.2.1-.4.1-.6.1s-.4 0-.6-.1l-1.3 2.5c.5.3.8.8.8 1.4 0 1-.8 1.7-1.7 1.7s-1.7-.8-1.7-1.7a1.75 1.75 0 0 1 .7-1.4l-1.4-2.6c-.2.1-.4.1-.6.1-.1 0-.3 0-.5-.1l-1.3 2.5a1.75 1.75 0 0 1 .7 1.4c0 1-.8 1.7-1.7 1.7s-1.7-.8-1.7-1.7.8-1.7 1.7-1.7c.2 0 .4 0 .6.1l1.3-2.5c-.5-.3-.8-.8-.8-1.5 0-1 .8-1.7 1.7-1.7.3 0 .5.1.7.1l1.3-2.6a1.75 1.75 0 0 1-.7-1.4c0-1 .8-1.7 1.7-1.7 1 0 1.7.8 1.7 1.7 0 .6-.3 1.1-.8 1.4l1.3 2.5c.2-.1.3-.1.5-.1 1 0 1.7.8 1.7 1.7a1.75 1.75 0 0 1-.7 1.4l1.3 2.6c.2-.1.4-.1.6-.1 1 0 1.7.8 1.7 1.7 0 1.3-.8 2-1.7 2z"/><use x="713.8" y="51" xlink:href="#B"/><use x="713.8" y="52.7" xlink:href="#B"/><use y="51" xlink:href="#q"/><use x="662.8" y="51" xlink:href="#G"/><use x="407.9" y="51" xlink:href="#d"/><use x="713.8" y="45" xlink:href="#B"/><use x="637.3" y="25.5" xlink:href="#U"/><path d="M752.2 409.3a11.29 11.29 0 0 0-11.3 11.3c0 6.3 5 11.2 11.2 11.2s11.2-5 11.2-11.2c.1-6.3-4.9-11.3-11.1-11.3zm5.6 17.8c-1 0-1.7-.8-1.7-1.7 0-.6.3-1.1.8-1.4l-1.3-2.6c-.2.1-.4.1-.6.1s-.4 0-.6-.1l-1.3 2.5c.5.3.8.8.8 1.4 0 1-.8 1.7-1.7 1.7-1 0-1.7-.8-1.7-1.7a1.75 1.75 0 0 1 .7-1.4l-1.4-2.6c-.2.1-.4.1-.6.1-.1 0-.3 0-.5-.1l-1.3 2.5a1.75 1.75 0 0 1 .7 1.4c0 1-.8 1.7-1.7 1.7s-1.7-.8-1.7-1.7.8-1.7 1.7-1.7c.2 0 .4 0 .6.1l1.3-2.5c-.5-.3-.8-.8-.8-1.5 0-1 .8-1.7 1.7-1.7.3 0 .5.1.7.1l1.3-2.6a1.75 1.75 0 0 1-.7-1.4c0-1 .8-1.7 1.7-1.7 1 0 1.7.8 1.7 1.7 0 .6-.3 1.1-.8 1.4l1.3 2.5c.2-.1.3-.1.5-.1 1 0 1.7.8 1.7 1.7a1.75 1.75 0 0 1-.7 1.4l1.3 2.6c.2-.1.4-.1.6-.1 1 0 1.7.8 1.7 1.7.1 1.3-.7 2-1.7 2z"/><use x="764.8" y="51" xlink:href="#B"/><use x="764.8" y="52.7" xlink:href="#B"/><use x="51" y="51" xlink:href="#q"/><use x="713.8" y="51" xlink:href="#G"/><use x="713.8" xlink:href="#a"/><use x="764.8" y="45" xlink:href="#B"/><use x="739.3" y="25.5" xlink:href="#R"/><path d="M803.1 409.3a11.29 11.29 0 0 0-11.3 11.3c0 6.3 5 11.2 11.2 11.2s11.2-5 11.2-11.2c.2-6.3-4.8-11.3-11.1-11.3zm5.7 17.8c-1 0-1.7-.8-1.7-1.7 0-.6.3-1.1.8-1.4l-1.3-2.6c-.2.1-.4.1-.6.1s-.4 0-.6-.1l-1.3 2.5c.5.3.8.8.8 1.4 0 1-.8 1.7-1.7 1.7s-1.7-.8-1.7-1.7a1.75 1.75 0 0 1 .7-1.4l-1.4-2.6c-.2.1-.4.1-.6.1-.1 0-.3 0-.5-.1l-1.3 2.5a1.75 1.75 0 0 1 .7 1.4c0 1-.8 1.7-1.7 1.7-1 0-1.7-.8-1.7-1.7s.8-1.7 1.7-1.7c.2 0 .4 0 .6.1l1.3-2.5c-.5-.3-.8-.8-.8-1.5 0-1 .8-1.7 1.7-1.7.3 0 .5.1.7.1l1.3-2.6a1.75 1.75 0 0 1-.7-1.4c0-1 .8-1.7 1.7-1.7 1 0 1.7.8 1.7 1.7 0 .6-.3 1.1-.8 1.4l1.3 2.5c.2-.1.3-.1.5-.1 1 0 1.7.8 1.7 1.7a1.75 1.75 0 0 1-.7 1.4l1.3 2.6c.2-.1.4-.1.6-.1 1 0 1.7.8 1.7 1.7.1 1.3-.7 2-1.7 2z"/><use x="815.8" y="51" xlink:href="#B"/><use x="815.8" y="52.7" xlink:href="#B"/><use y="51" xlink:href="#r"/><use x="764.8" y="51" xlink:href="#G"/><use x="713.8" xlink:href="#b"/><use x="815.8" y="45" xlink:href="#B"/><use x="815.7" xlink:href="#F"/><path d="M854.1 358.3a11.29 11.29 0 0 0-11.3 11.3c0 6.2 5 11.2 11.2 11.2s11.2-5 11.2-11.2c.2-6.3-4.9-11.3-11.1-11.3zm5.7 17.9c-1 0-1.7-.8-1.7-1.7 0-.6.3-1.1.8-1.4l-1.3-2.6c-.2.1-.4.1-.6.1s-.4 0-.6-.1l-1.3 2.5c.5.3.8.8.8 1.4 0 1-.8 1.7-1.7 1.7s-1.7-.8-1.7-1.7a1.75 1.75 0 0 1 .7-1.4l-1.4-2.6c-.2.1-.4.1-.6.1-.1 0-.3 0-.5-.1l-1.3 2.5a1.75 1.75 0 0 1 .7 1.4c0 1-.8 1.7-1.7 1.7-1 0-1.7-.8-1.7-1.7 0-1 .8-1.7 1.7-1.7.2 0 .4 0 .6.1l1.3-2.5c-.5-.3-.8-.8-.8-1.5 0-1 .8-1.7 1.7-1.7.3 0 .5.1.7.1l1.3-2.6a1.75 1.75 0 0 1-.7-1.4c0-1 .8-1.7 1.7-1.7 1 0 1.7.8 1.7 1.7 0 .6-.3 1.1-.8 1.4l1.3 2.5c.2-.1.3-.1.5-.1 1 0 1.7.8 1.7 1.7a1.75 1.75 0 0 1-.7 1.4l1.3 2.6c.2-.1.4-.1.6-.1 1 0 1.7.8 1.7 1.7.1 1.2-.7 2-1.7 2z"/><use x="866.8" xlink:href="#B"/><use x="866.8" y="1.7" xlink:href="#B"/><use x="713.8" xlink:href="#L"/><use x="815.8" xlink:href="#G"/><use x="713.8" xlink:href="#M"/><use x="866.8" y="-6" xlink:href="#B"/><use x="713.8" xlink:href="#N"/><path d="M905.1 358.3a11.29 11.29 0 0 0-11.3 11.3c0 6.2 5 11.2 11.2 11.2s11.2-5 11.2-11.2c.2-6.3-4.9-11.3-11.1-11.3zm5.7 17.9c-1 0-1.7-.8-1.7-1.7 0-.6.3-1.1.8-1.4l-1.3-2.6c-.2.1-.4.1-.6.1s-.4 0-.6-.1l-1.3 2.5c.5.3.8.8.8 1.4 0 1-.8 1.7-1.7 1.7-1 0-1.7-.8-1.7-1.7a1.75 1.75 0 0 1 .7-1.4l-1.4-2.6c-.2.1-.4.1-.6.1-.1 0-.3 0-.5-.1l-1.3 2.5a1.75 1.75 0 0 1 .7 1.4c0 1-.8 1.7-1.7 1.7-1 0-1.7-.8-1.7-1.7 0-1 .8-1.7 1.7-1.7.2 0 .4 0 .6.1l1.3-2.5c-.5-.3-.8-.8-.8-1.5 0-1 .8-1.7 1.7-1.7.3 0 .5.1.7.1l1.3-2.6a1.75 1.75 0 0 1-.7-1.4c0-1 .8-1.7 1.7-1.7 1 0 1.7.8 1.7 1.7 0 .6-.3 1.1-.8 1.4l1.3 2.5c.2-.1.3-.1.5-.1 1 0 1.7.8 1.7 1.7a1.75 1.75 0 0 1-.7 1.4l1.3 2.6c.2-.1.4-.1.6-.1 1 0 1.7.8 1.7 1.7.1 1.2-.7 2-1.7 2z"/><use x="917.8" xlink:href="#B"/><use x="917.8" y="1.7" xlink:href="#B"/><use x="917.7" xlink:href="#C"/><use x="866.7" xlink:href="#G"/><path d="M930.6 358.3c-6.2 0-11.2 5-11.2 11.2s5 11.2 11.2 11.2 11.2-5 11.2-11.2-5-11.2-11.2-11.2zM930 375c0 .5-.4.8-.8.8h-4c-.5 0-.8-.4-.8-.8v-4c0-.5.4-.8.8-.8h4c.5 0 .8.4.8.8v4zm0-6.9c0 .5-.4.8-.8.8h-4c-.5 0-.8-.4-.8-.8v-3.9c0-.5.4-.8.8-.8h4c.5 0 .8.4.8.8v3.9zm6.9 6.9c0 .5-.4.8-.8.8h-4c-.5 0-.8-.4-.8-.8v-4c0-.5.4-.8.8-.8h4c.5 0 .8.4.8.8v4zm0-6.9c0 .5-.4.8-.8.8h-4c-.5 0-.8-.4-.8-.8v-3.9c0-.5.4-.8.8-.8h4c.5 0 .8.4.8.8v3.9z"/><use x="917.8" y="-6" xlink:href="#B"/><use x="917.7" xlink:href="#F"/><use x="407.9" xlink:href="#m"/><use x="713.8" xlink:href="#P"/><use x="713.8" y="1.7" xlink:href="#P"/><use x="968.7" xlink:href="#C"/><use x="917.7" xlink:href="#G"/><path d="M981.6 358.3c-6.2 0-11.2 5-11.2 11.2s5 11.2 11.2 11.2 11.2-5 11.2-11.2-5-11.2-11.2-11.2zM981 375c0 .5-.4.8-.8.8h-4c-.5 0-.8-.4-.8-.8v-4c0-.5.4-.8.8-.8h4c.5 0 .8.4.8.8v4zm0-6.9c0 .5-.4.8-.8.8h-4c-.5 0-.8-.4-.8-.8v-3.9c0-.5.4-.8.8-.8h4c.5 0 .8.4.8.8v3.9zm6.8 6.9c0 .5-.4.8-.8.8h-4c-.5 0-.8-.4-.8-.8v-4c0-.5.4-.8.8-.8h4c.5 0 .8.4.8.8v4zm0-6.9c0 .5-.4.8-.8.8h-4c-.5 0-.8-.4-.8-.8v-3.9c0-.5.4-.8.8-.8h4c.5 0 .8.4.8.8v3.9z"/><use x="713.8" y="-6" xlink:href="#P"/><use x="968.7" xlink:href="#F"/><path d="M1007.1 358.3a11.29 11.29 0 0 0-11.3 11.3c0 6.2 5 11.2 11.2 11.2s11.2-5 11.2-11.2c.1-6.3-4.9-11.3-11.1-11.3zm5.7 17.9c-1 0-1.7-.8-1.7-1.7 0-.6.3-1.1.8-1.4l-1.3-2.6c-.2.1-.4.1-.6.1s-.4 0-.6-.1l-1.3 2.5c.5.3.8.8.8 1.4 0 1-.8 1.7-1.7 1.7-1 0-1.7-.8-1.7-1.7a1.75 1.75 0 0 1 .7-1.4l-1.4-2.6c-.2.1-.4.1-.6.1-.1 0-.3 0-.5-.1l-1.3 2.5a1.75 1.75 0 0 1 .7 1.4c0 1-.8 1.7-1.7 1.7s-1.7-.8-1.7-1.7c0-1 .8-1.7 1.7-1.7.2 0 .4 0 .6.1l1.3-2.5c-.5-.3-.8-.8-.8-1.5 0-1 .8-1.7 1.7-1.7.3 0 .5.1.7.1l1.3-2.6a1.75 1.75 0 0 1-.7-1.4c0-1 .8-1.7 1.7-1.7s1.7.8 1.7 1.7c0 .6-.3 1.1-.8 1.4l1.3 2.5c.2-.1.3-.1.5-.1 1 0 1.7.8 1.7 1.7a1.75 1.75 0 0 1-.7 1.4l1.3 2.6c.2-.1.4-.1.6-.1 1 0 1.7.8 1.7 1.7 0 1.2-.8 2-1.7 2z"/><use x="1019.7" xlink:href="#B"/><use x="1019.7" y="1.7" xlink:href="#B"/><use x="1019.7" xlink:href="#C"/><use x="968.7" xlink:href="#G"/><use x="764.8" xlink:href="#Q"/><use x="1019.7" y="-6" xlink:href="#B"/><use x="1019.7" xlink:href="#F"/><path d="M1058.1 358.3a11.29 11.29 0 0 0-11.3 11.3c0 6.2 5 11.2 11.2 11.2s11.2-5 11.2-11.2c.1-6.3-4.9-11.3-11.1-11.3zm5.6 17.9c-1 0-1.7-.8-1.7-1.7 0-.6.3-1.1.8-1.4l-1.3-2.6c-.2.1-.4.1-.6.1s-.4 0-.6-.1l-1.3 2.5c.5.3.8.8.8 1.4 0 1-.8 1.7-1.7 1.7s-1.7-.8-1.7-1.7a1.75 1.75 0 0 1 .7-1.4l-1.4-2.6c-.2.1-.4.1-.6.1-.1 0-.3 0-.5-.1l-1.3 2.5a1.75 1.75 0 0 1 .7 1.4c0 1-.8 1.7-1.7 1.7-1 0-1.7-.8-1.7-1.7 0-1 .8-1.7 1.7-1.7.2 0 .4 0 .6.1l1.3-2.5c-.5-.3-.8-.8-.8-1.5 0-1 .8-1.7 1.7-1.7.3 0 .5.1.7.1l1.3-2.6a1.75 1.75 0 0 1-.7-1.4c0-1 .8-1.7 1.7-1.7s1.7.8 1.7 1.7c0 .6-.3 1.1-.8 1.4l1.3 2.5c.2-.1.3-.1.5-.1 1 0 1.7.8 1.7 1.7a1.75 1.75 0 0 1-.7 1.4l1.3 2.6c.2-.1.4-.1.6-.1 1 0 1.7.8 1.7 1.7.1 1.2-.7 2-1.7 2z"/><use x="1070.7" xlink:href="#B"/><use x="1070.7" y="1.7" xlink:href="#B"/><use x="1070.7" xlink:href="#C"/><use x="1019.7" xlink:href="#G"/><use x="1019.7" xlink:href="#H"/><use x="1070.7" y="-6" xlink:href="#B"/><use x="841.3" y="25.5" xlink:href="#B"/><use x="841.3" y="27.2" xlink:href="#B"/><use x="688.3" y="25.5" xlink:href="#L"/><use x="790.3" y="25.5" xlink:href="#G"/><use x="739.3" y="25.5" xlink:href="#K"/><use x="841.3" y="19.5" xlink:href="#B"/><use x="713.8" xlink:href="#W"/><path d="M879.6 383.8a11.29 11.29 0 0 0-11.3 11.3c0 6.3 5 11.2 11.2 11.2s11.2-5 11.2-11.2c.2-6.3-4.9-11.3-11.1-11.3zm5.7 17.8c-1 0-1.7-.8-1.7-1.7 0-.6.3-1.1.8-1.4l-1.3-2.6c-.2.1-.4.1-.6.1s-.4 0-.6-.1l-1.3 2.5c.5.3.8.8.8 1.4 0 1-.8 1.7-1.7 1.7-1 0-1.7-.8-1.7-1.7a1.75 1.75 0 0 1 .7-1.4l-1.4-2.6c-.2.1-.4.1-.6.1-.1 0-.3 0-.5-.1l-1.3 2.5a1.75 1.75 0 0 1 .7 1.4c0 1-.8 1.7-1.7 1.7-1 0-1.7-.8-1.7-1.7 0-1 .8-1.7 1.7-1.7.2 0 .4 0 .6.1l1.3-2.5c-.5-.3-.8-.8-.8-1.5 0-1 .8-1.7 1.7-1.7.3 0 .5.1.7.1l1.3-2.6a1.75 1.75 0 0 1-.7-1.4c0-1 .8-1.7 1.7-1.7 1 0 1.7.8 1.7 1.7 0 .6-.3 1.1-.8 1.4l1.3 2.5c.2-.1.3-.1.5-.1 1 0 1.7.8 1.7 1.7a1.75 1.75 0 0 1-.7 1.4l1.3 2.6c.2-.1.4-.1.6-.1 1 0 1.7.8 1.7 1.7.1 1.3-.7 2-1.7 2z"/><use x="892.3" y="25.5" xlink:href="#B"/><use x="892.3" y="27.2" xlink:href="#B"/><use x="892.2" y="25.5" xlink:href="#C"/><use x="841.3" y="25.5" xlink:href="#G"/><use x="637.3" y="25.5" xlink:href="#Q"/><use x="892.3" y="19.5" xlink:href="#B"/><use x="815.7" xlink:href="#U"/><path d="M930.6 383.8a11.29 11.29 0 0 0-11.3 11.3c0 6.3 5 11.2 11.2 11.2s11.2-5 11.2-11.2c.2-6.3-4.9-11.3-11.1-11.3zm5.7 17.8c-1 0-1.7-.8-1.7-1.7 0-.6.3-1.1.8-1.4l-1.3-2.6c-.2.1-.4.1-.6.1s-.4 0-.6-.1l-1.3 2.5c.5.3.8.8.8 1.4 0 1-.8 1.7-1.7 1.7-1 0-1.7-.8-1.7-1.7a1.75 1.75 0 0 1 .7-1.4l-1.4-2.6c-.2.1-.4.1-.6.1-.1 0-.3 0-.5-.1l-1.3 2.5a1.75 1.75 0 0 1 .7 1.4c0 1-.8 1.7-1.7 1.7-1 0-1.7-.8-1.7-1.7 0-1 .8-1.7 1.7-1.7.2 0 .4 0 .6.1l1.3-2.5c-.5-.3-.8-.8-.8-1.5 0-1 .8-1.7 1.7-1.7.3 0 .5.1.7.1l1.3-2.6a1.75 1.75 0 0 1-.7-1.4c0-1 .8-1.7 1.7-1.7s1.7.8 1.7 1.7c0 .6-.3 1.1-.8 1.4l1.3 2.5c.2-.1.3-.1.5-.1 1 0 1.7.8 1.7 1.7a1.75 1.75 0 0 1-.7 1.4l1.3 2.6c.2-.1.4-.1.6-.1 1 0 1.7.8 1.7 1.7 0 1.3-.7 2-1.7 2z"/><use xlink:href="#u"/><use y="1.7" xlink:href="#u"/><use x="943.2" y="25.5" xlink:href="#C"/><use x="892.2" y="25.5" xlink:href="#G"/><use x="739.3" y="25.5" xlink:href="#O"/><use y="-6" xlink:href="#u"/><use x="866.7" xlink:href="#U"/><path d="M981.6 383.8a11.29 11.29 0 0 0-11.3 11.3c0 6.3 5 11.2 11.2 11.2s11.2-5 11.2-11.2c.1-6.3-4.9-11.3-11.1-11.3zm5.7 17.8c-1 0-1.7-.8-1.7-1.7 0-.6.3-1.1.8-1.4l-1.3-2.6c-.2.1-.4.1-.6.1s-.4 0-.6-.1l-1.3 2.5c.5.3.8.8.8 1.4 0 1-.8 1.7-1.7 1.7s-1.7-.8-1.7-1.7a1.75 1.75 0 0 1 .7-1.4l-1.4-2.6c-.2.1-.4.1-.6.1-.1 0-.3 0-.5-.1l-1.3 2.5a1.75 1.75 0 0 1 .7 1.4c0 1-.8 1.7-1.7 1.7-1 0-1.7-.8-1.7-1.7 0-1 .8-1.7 1.7-1.7.2 0 .4 0 .6.1l1.3-2.5c-.5-.3-.8-.8-.8-1.5 0-1 .8-1.7 1.7-1.7.3 0 .5.1.7.1l1.3-2.6a1.75 1.75 0 0 1-.7-1.4c0-1 .8-1.7 1.7-1.7s1.7.8 1.7 1.7c0 .6-.3 1.1-.8 1.4l1.3 2.5c.2-.1.3-.1.5-.1 1 0 1.7.8 1.7 1.7a1.75 1.75 0 0 1-.7 1.4l1.3 2.6c.2-.1.4-.1.6-.1 1 0 1.7.8 1.7 1.7 0 1.3-.7 2-1.7 2z"/><use x="739.3" y="25.5" xlink:href="#P"/><use x="739.3" y="27.2" xlink:href="#P"/><use x="994.2" y="25.5" xlink:href="#C"/><use x="943.2" y="25.5" xlink:href="#G"/><use x="739.3" y="25.5" xlink:href="#Q"/><use x="739.3" y="19.5" xlink:href="#P"/><use x="917.7" xlink:href="#U"/><use xlink:href="#v"/><use x="1045.2" y="25.5" xlink:href="#B"/><use x="1045.2" y="27.2" xlink:href="#B"/><use x="1045.2" y="25.5" xlink:href="#C"/><use x="994.2" y="25.5" xlink:href="#G"/><use x="790.3" y="25.5" xlink:href="#Q"/><use x="1045.2" y="19.5" xlink:href="#B"/><use x="1019.7" xlink:href="#R"/><use x="51" xlink:href="#v"/><use x="739.2" y="25.5" xlink:href="#U"/><path d="M854.1 409.3a11.29 11.29 0 0 0-11.3 11.3c0 6.3 5 11.2 11.2 11.2s11.2-5 11.2-11.2c.2-6.3-4.9-11.3-11.1-11.3zm5.7 17.8c-1 0-1.7-.8-1.7-1.7 0-.6.3-1.1.8-1.4l-1.3-2.6c-.2.1-.4.1-.6.1s-.4 0-.6-.1l-1.3 2.5c.5.3.8.8.8 1.4 0 1-.8 1.7-1.7 1.7s-1.7-.8-1.7-1.7a1.75 1.75 0 0 1 .7-1.4l-1.4-2.6c-.2.1-.4.1-.6.1-.1 0-.3 0-.5-.1l-1.3 2.5a1.75 1.75 0 0 1 .7 1.4c0 1-.8 1.7-1.7 1.7-1 0-1.7-.8-1.7-1.7s.8-1.7 1.7-1.7c.2 0 .4 0 .6.1l1.3-2.5c-.5-.3-.8-.8-.8-1.5 0-1 .8-1.7 1.7-1.7.3 0 .5.1.7.1l1.3-2.6a1.75 1.75 0 0 1-.7-1.4c0-1 .8-1.7 1.7-1.7 1 0 1.7.8 1.7 1.7 0 .6-.3 1.1-.8 1.4l1.3 2.5c.2-.1.3-.1.5-.1 1 0 1.7.8 1.7 1.7a1.75 1.75 0 0 1-.7 1.4l1.3 2.6c.2-.1.4-.1.6-.1 1 0 1.7.8 1.7 1.7.1 1.3-.7 2-1.7 2z"/><use x="866.8" y="51" xlink:href="#B"/><use x="866.8" y="52.7" xlink:href="#B"/><use x="713.8" y="51" xlink:href="#L"/><use x="815.8" y="51" xlink:href="#G"/><use x="713.8" xlink:href="#c"/><use x="866.8" y="45" xlink:href="#B"/><use x="739.3" y="25.5" xlink:href="#W"/><path d="M905.1 409.3a11.29 11.29 0 0 0-11.3 11.3c0 6.3 5 11.2 11.2 11.2s11.2-5 11.2-11.2c.2-6.3-4.9-11.3-11.1-11.3zm5.7 17.8c-1 0-1.7-.8-1.7-1.7 0-.6.3-1.1.8-1.4l-1.3-2.6c-.2.1-.4.1-.6.1s-.4 0-.6-.1l-1.3 2.5c.5.3.8.8.8 1.4 0 1-.8 1.7-1.7 1.7-1 0-1.7-.8-1.7-1.7a1.75 1.75 0 0 1 .7-1.4l-1.4-2.6c-.2.1-.4.1-.6.1-.1 0-.3 0-.5-.1l-1.3 2.5a1.75 1.75 0 0 1 .7 1.4c0 1-.8 1.7-1.7 1.7-1 0-1.7-.8-1.7-1.7s.8-1.7 1.7-1.7c.2 0 .4 0 .6.1l1.3-2.5c-.5-.3-.8-.8-.8-1.5 0-1 .8-1.7 1.7-1.7.3 0 .5.1.7.1l1.3-2.6a1.75 1.75 0 0 1-.7-1.4c0-1 .8-1.7 1.7-1.7 1 0 1.7.8 1.7 1.7 0 .6-.3 1.1-.8 1.4l1.3 2.5c.2-.1.3-.1.5-.1 1 0 1.7.8 1.7 1.7a1.75 1.75 0 0 1-.7 1.4l1.3 2.6c.2-.1.4-.1.6-.1 1 0 1.7.8 1.7 1.7.1 1.3-.7 2-1.7 2z"/><use x="917.8" y="51" xlink:href="#B"/><use x="917.8" y="52.7" xlink:href="#B"/><use x="917.7" y="51" xlink:href="#C"/><use x="866.7" y="51" xlink:href="#G"/><path d="M930.6 409.3c-6.2 0-11.2 5-11.2 11.2s5 11.2 11.2 11.2 11.2-5 11.2-11.2-5-11.2-11.2-11.2zM930 426c0 .5-.4.8-.8.8h-4c-.5 0-.8-.4-.8-.8v-4c0-.5.4-.8.8-.8h4c.5 0 .8.4.8.8v4zm0-6.9c0 .5-.4.8-.8.8h-4c-.5 0-.8-.4-.8-.8v-3.9c0-.5.4-.8.8-.8h4c.5 0 .8.4.8.8v3.9zm6.9 6.9c0 .5-.4.8-.8.8h-4c-.5 0-.8-.4-.8-.8v-4c0-.5.4-.8.8-.8h4c.5 0 .8.4.8.8v4zm0-6.9c0 .5-.4.8-.8.8h-4c-.5 0-.8-.4-.8-.8v-3.9c0-.5.4-.8.8-.8h4c.5 0 .8.4.8.8v3.9z"/><use x="917.8" y="45" xlink:href="#B"/><use x="841.2" y="25.5" xlink:href="#U"/><use x="407.9" xlink:href="#p"/><use x="713.8" y="51" xlink:href="#P"/><use x="713.8" y="52.7" xlink:href="#P"/><use x="968.7" y="51" xlink:href="#C"/><use x="917.7" y="51" xlink:href="#G"/><path d="M981.6 409.3c-6.2 0-11.2 5-11.2 11.2s5 11.2 11.2 11.2 11.2-5 11.2-11.2-5-11.2-11.2-11.2zM981 426c0 .5-.4.8-.8.8h-4c-.5 0-.8-.4-.8-.8v-4c0-.5.4-.8.8-.8h4c.5 0 .8.4.8.8v4zm0-6.9c0 .5-.4.8-.8.8h-4c-.5 0-.8-.4-.8-.8v-3.9c0-.5.4-.8.8-.8h4c.5 0 .8.4.8.8v3.9zm6.8 6.9c0 .5-.4.8-.8.8h-4c-.5 0-.8-.4-.8-.8v-4c0-.5.4-.8.8-.8h4c.5 0 .8.4.8.8v4zm0-6.9c0 .5-.4.8-.8.8h-4c-.5 0-.8-.4-.8-.8v-3.9c0-.5.4-.8.8-.8h4c.5 0 .8.4.8.8v3.9z"/><use x="713.8" y="45" xlink:href="#P"/><use x="892.2" y="25.5" xlink:href="#U"/><path d="M1007.1 409.3a11.29 11.29 0 0 0-11.3 11.3c0 6.3 5 11.2 11.2 11.2s11.2-5 11.2-11.2c.1-6.3-4.9-11.3-11.1-11.3zm5.7 17.8c-1 0-1.7-.8-1.7-1.7 0-.6.3-1.1.8-1.4l-1.3-2.6c-.2.1-.4.1-.6.1s-.4 0-.6-.1l-1.3 2.5c.5.3.8.8.8 1.4 0 1-.8 1.7-1.7 1.7-1 0-1.7-.8-1.7-1.7a1.75 1.75 0 0 1 .7-1.4l-1.4-2.6c-.2.1-.4.1-.6.1-.1 0-.3 0-.5-.1l-1.3 2.5a1.75 1.75 0 0 1 .7 1.4c0 1-.8 1.7-1.7 1.7s-1.7-.8-1.7-1.7.8-1.7 1.7-1.7c.2 0 .4 0 .6.1l1.3-2.5c-.5-.3-.8-.8-.8-1.5 0-1 .8-1.7 1.7-1.7.3 0 .5.1.7.1l1.3-2.6a1.75 1.75 0 0 1-.7-1.4c0-1 .8-1.7 1.7-1.7s1.7.8 1.7 1.7c0 .6-.3 1.1-.8 1.4l1.3 2.5c.2-.1.3-.1.5-.1 1 0 1.7.8 1.7 1.7a1.75 1.75 0 0 1-.7 1.4l1.3 2.6c.2-.1.4-.1.6-.1 1 0 1.7.8 1.7 1.7 0 1.3-.8 2-1.7 2z"/><use x="1019.7" y="51" xlink:href="#B"/><use x="1019.7" y="52.7" xlink:href="#B"/><use x="1019.7" y="51" xlink:href="#C"/><use x="968.7" y="51" xlink:href="#G"/><use x="764.8" y="51" xlink:href="#Q"/><use x="1019.7" y="45" xlink:href="#B"/><use x="943.2" y="25.5" xlink:href="#U"/><path d="M1058.1 409.3a11.29 11.29 0 0 0-11.3 11.3c0 6.3 5 11.2 11.2 11.2s11.2-5 11.2-11.2c.1-6.3-4.9-11.3-11.1-11.3zm5.6 17.8c-1 0-1.7-.8-1.7-1.7 0-.6.3-1.1.8-1.4l-1.3-2.6c-.2.1-.4.1-.6.1s-.4 0-.6-.1l-1.3 2.5c.5.3.8.8.8 1.4 0 1-.8 1.7-1.7 1.7s-1.7-.8-1.7-1.7a1.75 1.75 0 0 1 .7-1.4l-1.4-2.6c-.2.1-.4.1-.6.1-.1 0-.3 0-.5-.1l-1.3 2.5a1.75 1.75 0 0 1 .7 1.4c0 1-.8 1.7-1.7 1.7-1 0-1.7-.8-1.7-1.7s.8-1.7 1.7-1.7c.2 0 .4 0 .6.1l1.3-2.5c-.5-.3-.8-.8-.8-1.5 0-1 .8-1.7 1.7-1.7.3 0 .5.1.7.1l1.3-2.6a1.75 1.75 0 0 1-.7-1.4c0-1 .8-1.7 1.7-1.7s1.7.8 1.7 1.7c0 .6-.3 1.1-.8 1.4l1.3 2.5c.2-.1.3-.1.5-.1 1 0 1.7.8 1.7 1.7a1.75 1.75 0 0 1-.7 1.4l1.3 2.6c.2-.1.4-.1.6-.1 1 0 1.7.8 1.7 1.7.1 1.3-.7 2-1.7 2z"/><use x="1070.7" y="51" xlink:href="#B"/><use x="1070.7" y="52.7" xlink:href="#B"/><use x="1070.7" y="51" xlink:href="#C"/><use x="1019.7" y="51" xlink:href="#G"/><use x="1019.7" xlink:href="#a"/><use x="1070.7" y="45" xlink:href="#B"/><use x="1070.7" xlink:href="#F"/><path d="M1109 358.3a11.29 11.29 0 0 0-11.3 11.3c0 6.2 5 11.2 11.2 11.2s11.2-5 11.2-11.2c.2-6.3-4.8-11.3-11.1-11.3zm5.8 17.9c-1 0-1.7-.8-1.7-1.7 0-.6.3-1.1.8-1.4l-1.3-2.6c-.2.1-.4.1-.6.1s-.4 0-.6-.1l-1.3 2.5c.5.3.8.8.8 1.4 0 1-.8 1.7-1.7 1.7-1 0-1.7-.8-1.7-1.7a1.75 1.75 0 0 1 .7-1.4l-1.4-2.6c-.2.1-.4.1-.6.1-.1 0-.3 0-.5-.1l-1.3 2.5a1.75 1.75 0 0 1 .7 1.4c0 1-.8 1.7-1.7 1.7s-1.7-.8-1.7-1.7c0-1 .8-1.7 1.7-1.7.2 0 .4 0 .6.1l1.3-2.5c-.5-.3-.8-.8-.8-1.5 0-1 .8-1.7 1.7-1.7.3 0 .5.1.7.1l1.3-2.6a1.75 1.75 0 0 1-.7-1.4c0-1 .8-1.7 1.7-1.7s1.7.8 1.7 1.7c0 .6-.3 1.1-.8 1.4l1.3 2.5c.2-.1.3-.1.5-.1 1 0 1.7.8 1.7 1.7a1.75 1.75 0 0 1-.7 1.4l1.3 2.6c.2-.1.4-.1.6-.1 1 0 1.7.8 1.7 1.7 0 1.2-.8 2-1.7 2z"/><use x="1121.7" xlink:href="#B"/><use x="1121.7" y="1.7" xlink:href="#B"/><use x="1121.7" xlink:href="#C"/><use x="1070.7" xlink:href="#G"/><use x="1019.7" xlink:href="#K"/><use x="1121.7" y="-6" xlink:href="#B"/><use x="968.7" xlink:href="#N"/><path d="M1160.1 358.3a11.29 11.29 0 0 0-11.3 11.3c0 6.2 5 11.2 11.2 11.2s11.2-5 11.2-11.2c.1-6.3-5-11.3-11.1-11.3zm5.6 17.9c-1 0-1.7-.8-1.7-1.7 0-.6.3-1.1.8-1.4l-1.3-2.6c-.2.1-.4.1-.6.1s-.4 0-.6-.1l-1.3 2.5c.5.3.8.8.8 1.4 0 1-.8 1.7-1.7 1.7s-1.7-.8-1.7-1.7a1.75 1.75 0 0 1 .7-1.4l-1.4-2.6c-.2.1-.4.1-.6.1-.1 0-.3 0-.5-.1l-1.3 2.5a1.75 1.75 0 0 1 .7 1.4c0 1-.8 1.7-1.7 1.7s-1.7-.8-1.7-1.7c0-1 .8-1.7 1.7-1.7.2 0 .4 0 .6.1l1.3-2.5c-.5-.3-.8-.8-.8-1.5 0-1 .8-1.7 1.7-1.7.3 0 .5.1.7.1l1.3-2.6a1.75 1.75 0 0 1-.7-1.4c0-1 .8-1.7 1.7-1.7s1.7.8 1.7 1.7c0 .6-.3 1.1-.8 1.4l1.3 2.5c.2-.1.3-.1.5-.1 1 0 1.7.8 1.7 1.7a1.75 1.75 0 0 1-.7 1.4l1.3 2.6c.2-.1.4-.1.6-.1 1 0 1.7.8 1.7 1.7.1 1.2-.7 2-1.7 2z"/><use x="1096.2" y="25.5" xlink:href="#B"/><use x="1096.2" y="27.2" xlink:href="#B"/><use x="1096.2" y="25.5" xlink:href="#C"/><use x="1045.2" y="25.5" xlink:href="#G"/><use x="994.2" y="25.5" xlink:href="#K"/><use x="1096.2" y="19.5" xlink:href="#B"/><use x="1019.7" xlink:href="#U"/><use x="1019.7" xlink:href="#V"/><use x="1147.2" y="25.5" xlink:href="#B"/><use x="1147.2" y="27.2" xlink:href="#B"/><use x="994.2" y="25.5" xlink:href="#L"/><use x="1096.2" y="25.5" xlink:href="#G"/><use x="1045.2" y="25.5" xlink:href="#K"/><use x="1147.2" y="19.5" xlink:href="#B"/><use x="994.2" y="25.5" xlink:href="#U"/><path d="M1109 409.3a11.29 11.29 0 0 0-11.3 11.3c0 6.3 5 11.2 11.2 11.2s11.2-5 11.2-11.2c.2-6.3-4.8-11.3-11.1-11.3zm5.8 17.8c-1 0-1.7-.8-1.7-1.7 0-.6.3-1.1.8-1.4l-1.3-2.6c-.2.1-.4.1-.6.1s-.4 0-.6-.1l-1.3 2.5c.5.3.8.8.8 1.4 0 1-.8 1.7-1.7 1.7-1 0-1.7-.8-1.7-1.7a1.75 1.75 0 0 1 .7-1.4l-1.4-2.6c-.2.1-.4.1-.6.1-.1 0-.3 0-.5-.1l-1.3 2.5a1.75 1.75 0 0 1 .7 1.4c0 1-.8 1.7-1.7 1.7s-1.7-.8-1.7-1.7.8-1.7 1.7-1.7c.2 0 .4 0 .6.1l1.3-2.5c-.5-.3-.8-.8-.8-1.5 0-1 .8-1.7 1.7-1.7.3 0 .5.1.7.1l1.3-2.6a1.75 1.75 0 0 1-.7-1.4c0-1 .8-1.7 1.7-1.7s1.7.8 1.7 1.7c0 .6-.3 1.1-.8 1.4l1.3 2.5c.2-.1.3-.1.5-.1 1 0 1.7.8 1.7 1.7a1.75 1.75 0 0 1-.7 1.4l1.3 2.6c.2-.1.4-.1.6-.1 1 0 1.7.8 1.7 1.7 0 1.3-.8 2-1.7 2z"/><use x="1121.7" y="51" xlink:href="#B"/><use x="1121.7" y="52.7" xlink:href="#B"/><use x="1121.7" y="51" xlink:href="#C"/><use x="1070.7" y="51" xlink:href="#G"/><use x="1019.7" xlink:href="#b"/><use x="1121.7" y="45" xlink:href="#B"/><use x="994.2" y="25.5" xlink:href="#W"/><path d="M1160.1 409.3a11.29 11.29 0 0 0-11.3 11.3c0 6.3 5 11.2 11.2 11.2s11.2-5 11.2-11.2c.1-6.3-5-11.3-11.1-11.3zm5.6 17.8c-1 0-1.7-.8-1.7-1.7 0-.6.3-1.1.8-1.4l-1.3-2.6c-.2.1-.4.1-.6.1s-.4 0-.6-.1l-1.3 2.5c.5.3.8.8.8 1.4 0 1-.8 1.7-1.7 1.7s-1.7-.8-1.7-1.7a1.75 1.75 0 0 1 .7-1.4l-1.4-2.6c-.2.1-.4.1-.6.1-.1 0-.3 0-.5-.1l-1.3 2.5a1.75 1.75 0 0 1 .7 1.4c0 1-.8 1.7-1.7 1.7s-1.7-.8-1.7-1.7.8-1.7 1.7-1.7c.2 0 .4 0 .6.1l1.3-2.5c-.5-.3-.8-.8-.8-1.5 0-1 .8-1.7 1.7-1.7.3 0 .5.1.7.1l1.3-2.6a1.75 1.75 0 0 1-.7-1.4c0-1 .8-1.7 1.7-1.7s1.7.8 1.7 1.7c0 .6-.3 1.1-.8 1.4l1.3 2.5c.2-.1.3-.1.5-.1 1 0 1.7.8 1.7 1.7a1.75 1.75 0 0 1-.7 1.4l1.3 2.6c.2-.1.4-.1.6-.1 1 0 1.7.8 1.7 1.7.1 1.3-.7 2-1.7 2z"/></g><defs><path id="B" d="M17.9 371.7h-3.3c-.1 0-.2.1-.2.2v.4c0 .1.1.2.2.2h3.3c.1 0 .2-.1.2-.2v-.4c0-.1-.1-.2-.2-.2z"/><path id="C" d="M11.1 365.7h-1c-.1 0-.2-.1-.2-.2v-1c0-.1-.1-.2-.2-.2h-.4c-.1 0-.2.1-.2.2v1c0 .1-.1.2-.2.2h-1c-.1 0-.2.1-.2.2v.4c0 .1.1.2.2.2h1c.1 0 .2.1.2.2v1c0 .1.1.2.2.2h.4c.1 0 .2-.1.2-.2v-1c0-.1.1-.2.2-.2h1c.1 0 .2-.1.2-.2v-.4c0-.1-.1-.2-.2-.2z"/><path id="D" d="M10.9 372.1c.1-.1.1-.2 0-.3l-.3-.3c-.1-.1-.2-.1-.3 0l-.7.7c-.1.1-.2.1-.3 0l-.7-.7c-.1-.1-.2-.1-.3 0l-.3.3c-.1.1-.1.2 0 .3l.7.7c.1.1.1.2 0 .3l-.7.8c-.1.1-.1.2 0 .3l.3.3c.1.1.2.1.3 0l.7-.7c.1-.1.2-.1.3 0l.7.7c.1.1.2.1.3 0l.3-.3c.1-.1.1-.2 0-.3l-.7-.7c-.1-.1-.1-.2 0-.3l.7-.8z"/><path id="E" d="M12.9 358.3c-6.2 0-11.2 5-11.2 11.2s5 11.2 11.2 11.2 11.2-5 11.2-11.2-5-11.2-11.2-11.2zm-.6 16.7c0 .5-.4.8-.8.8h-4c-.5 0-.8-.4-.8-.8v-4c0-.5.4-.8.8-.8h3.9c.5 0 .8.4.8.8l.1 4h0zm0-6.9c0 .5-.4.8-.8.8h-4c-.5 0-.8-.4-.8-.8v-3.9c0-.5.4-.8.8-.8h3.9c.5 0 .8.4.8.8l.1 3.9h0zm6.8 6.9c0 .5-.4.8-.8.8h-4c-.5 0-.8-.4-.8-.8v-4c0-.5.4-.8.8-.8h4c.5 0 .8.4.8.8v4zm0-6.9c0 .5-.4.8-.8.8h-4c-.5 0-.8-.4-.8-.8v-3.9c0-.5.4-.8.8-.8h4c.5 0 .8.4.8.8 0 0 0 3.9 0 3.9z"/><path id="F" d="M40.3 367.3l-1.3-2.5c-.2.1-.4.1-.6.1s-.4 0-.6-.1l-1.4 2.7a1.75 1.75 0 0 1 0 2.8l1.4 2.6c.2-.1.4-.1.6-.1s.4 0 .6.1l1.3-2.5c-.5-.3-.8-.8-.8-1.4 0-.8.3-1.4.8-1.7z"/><path id="G" d="M61.9 372.1c.1-.1.1-.2 0-.3l-.3-.3c-.1-.1-.2-.1-.3 0l-.7.7c-.1.1-.2.1-.3 0l-.7-.7c-.1-.1-.2-.1-.3 0l-.3.3c-.1.1-.1.2 0 .3l.7.7c.1.1.1.2 0 .3l-.7.7c-.1.1-.1.2 0 .3l.3.3c.1.1.2.1.3 0l.7-.7c.1-.1.2-.1.3 0l.7.7c.1.1.2.1.3 0l.3-.3c.1-.1.1-.2 0-.3l-.7-.7c-.1-.1-.1-.2 0-.3l.7-.7z"/><path id="H" d="M63.8 358.3c-6.2 0-11.2 5-11.2 11.2s5 11.2 11.2 11.2 11.2-5 11.2-11.2-4.9-11.2-11.2-11.2zm-.5 16.7c0 .5-.4.8-.8.8h-4c-.5 0-.8-.4-.8-.8v-4c0-.5.4-.8.8-.8h4c.5 0 .8.4.8.8v4zm0-6.9c0 .5-.4.8-.8.8h-4c-.5 0-.8-.4-.8-.8v-3.9c0-.5.4-.8.8-.8h4c.5 0 .8.4.8.8v3.9zm6.8 6.9c0 .5-.4.8-.8.8h-4c-.5 0-.8-.4-.8-.8v-4c0-.5.4-.8.8-.8h4c.5 0 .8.4.8.8v4zm0-6.9c0 .5-.4.8-.8.8h-4c-.5 0-.8-.4-.8-.8v-3.9c0-.5.4-.8.8-.8h4c.5 0 .8.4.8.8v3.9z"/><path id="I" d="M91.3 367.3l-1.3-2.5c-.2.1-.4.1-.6.1s-.4 0-.6-.1l-1.4 2.7a1.75 1.75 0 0 1 0 2.8l1.4 2.6c.2-.1.4-.1.6-.1s.4 0 .6.1l1.3-2.5c-.5-.3-.8-.8-.8-1.4a1.69 1.69 0 0 1 .8-1.7z"/><path id="J" d="M113.1 365.7h-1c-.1 0-.2-.1-.2-.2v-1c0-.1-.1-.2-.2-.2h-.4c-.1 0-.2.1-.2.2v1c0 .1-.1.2-.2.2h-1c-.1 0-.2.1-.2.2v.4c0 .1.1.2.2.2h1c.1 0 .2.1.2.2v1c0 .1.1.2.2.2h.4c.1 0 .2-.1.2-.2v-1c0-.1.1-.2.2-.2h1c.1 0 .2-.1.2-.2v-.4c0-.1-.2-.2-.2-.2z"/><path id="K" d="M114.8 358.3c-6.2 0-11.2 5-11.2 11.2s5 11.2 11.2 11.2 11.2-5 11.2-11.2-5-11.2-11.2-11.2zm-.5 16.7c0 .5-.4.8-.8.8h-4c-.5 0-.8-.4-.8-.8v-4c0-.5.4-.8.8-.8h4c.5 0 .8.4.8.8v4zm0-6.9c0 .5-.4.8-.8.8h-4c-.5 0-.8-.4-.8-.8v-3.9c0-.5.4-.8.8-.8h4c.5 0 .8.4.8.8v3.9zm6.8 6.9c0 .5-.4.8-.8.8h-4c-.5 0-.8-.4-.8-.8v-4c0-.5.4-.8.8-.8h4c.5 0 .8.4.8.8v4zm0-6.9c0 .5-.4.8-.8.8h-4c-.5 0-.8-.4-.8-.8v-3.9c0-.5.4-.8.8-.8h4c.5 0 .8.4.8.8v3.9z"/><path id="L" d="M164 365.7h-1c-.1 0-.2-.1-.2-.2v-1c0-.1-.1-.2-.2-.2h-.4c-.1 0-.2.1-.2.2v1c0 .1-.1.2-.2.2h-1c-.1 0-.2.1-.2.2v.4c0 .1.1.2.2.2h1c.1 0 .2.1.2.2v1c0 .1.1.2.2.2h.4c.1 0 .2-.1.2-.2v-1c0-.1.1-.2.2-.2h1c.1 0 .2-.1.2-.2v-.4c.1-.1 0-.2-.2-.2z"/><path id="M" d="M165.8 358.3c-6.2 0-11.2 5-11.2 11.2s5 11.2 11.2 11.2 11.2-5 11.2-11.2-5-11.2-11.2-11.2zm-.5 16.7c0 .5-.4.8-.8.8h-4c-.5 0-.8-.4-.8-.8v-4c0-.5.4-.8.8-.8h3.9c.5 0 .8.4.8.8l.1 4h0zm0-6.9c0 .5-.4.8-.8.8h-4c-.5 0-.8-.4-.8-.8v-3.9c0-.5.4-.8.8-.8h3.9c.5 0 .8.4.8.8l.1 3.9h0zm6.8 6.9c0 .5-.4.8-.8.8h-4c-.5 0-.8-.4-.8-.8v-4c0-.5.4-.8.8-.8h4c.5 0 .8.4.8.8v4zm0-6.9c0 .5-.4.8-.8.8h-4c-.5 0-.8-.4-.8-.8v-3.9c0-.5.4-.8.8-.8h4c.5 0 .8.4.8.8v3.9z"/><path id="N" d="M193.2 367.3l-1.3-2.5c-.2.1-.4.1-.6.1s-.4 0-.6-.1l-1.4 2.7a1.75 1.75 0 0 1 0 2.8l1.4 2.6c.2-.1.4-.1.6-.1s.4 0 .6.1l1.3-2.5c-.5-.3-.8-.8-.8-1.4 0-.8.4-1.4.8-1.7z"/><path id="O" d="M216.8 358.3c-6.2 0-11.2 5-11.2 11.2s5 11.2 11.2 11.2 11.2-5 11.2-11.2-5-11.2-11.2-11.2zm-.6 16.7c0 .5-.4.8-.8.8h-4c-.5 0-.8-.4-.8-.8v-4c0-.5.4-.8.8-.8h4c.5 0 .8.4.8.8v4zm0-6.9c0 .5-.4.8-.8.8h-4c-.5 0-.8-.4-.8-.8v-3.9c0-.5.4-.8.8-.8h4c.5 0 .8.4.8.8v3.9zm6.9 6.9c0 .5-.4.8-.8.8h-4c-.5 0-.8-.4-.8-.8v-4c0-.5.4-.8.8-.8h4c.5 0 .8.4.8.8v4zm0-6.9c0 .5-.4.8-.8.8h-4c-.5 0-.8-.4-.8-.8v-3.9c0-.5.4-.8.8-.8h4c.5 0 .8.4.8.8v3.9z"/><path id="P" d="M272.8 371.7h-3.3c-.1 0-.2.1-.2.2v.4c0 .1.1.2.2.2h3.3c.1 0 .2-.1.2-.2v-.4c0-.1 0-.2-.2-.2z"/><path id="Q" d="M267.8 358.3c-6.2 0-11.2 5-11.2 11.2s5 11.2 11.2 11.2 11.2-5 11.2-11.2-5-11.2-11.2-11.2zm-.6 16.7c0 .5-.4.8-.8.8h-4c-.5 0-.8-.4-.8-.8v-4c0-.5.4-.8.8-.8h4c.5 0 .8.4.8.8v4zm0-6.9c0 .5-.4.8-.8.8h-4c-.5 0-.8-.4-.8-.8v-3.9c0-.5.4-.8.8-.8h4c.5 0 .8.4.8.8v3.9zm6.8 6.9c0 .5-.4.8-.8.8h-4c-.5 0-.8-.4-.8-.8v-4c0-.5.4-.8.8-.8h4c.5 0 .8.4.8.8v4zm0-6.9c0 .5-.4.8-.8.8h-4c-.5 0-.8-.4-.8-.8v-3.9c0-.5.4-.8.8-.8h4c.5 0 .8.4.8.8v3.9z"/><path id="R" d="M65.8 392.8l-1.3-2.5c-.2.1-.4.1-.6.1s-.4 0-.6-.1l-1.4 2.7a1.75 1.75 0 0 1 0 2.8l1.4 2.6c.2-.1.4-.1.6-.1s.4 0 .6.1l1.3-2.5c-.5-.3-.8-.8-.8-1.4-.1-.9.3-1.4.8-1.7z"/><path id="S" d="M87.4 397.6c.1-.1.1-.2 0-.3l-.3-.3c-.1-.1-.2-.1-.3 0l-.7.7c-.1.1-.2.1-.3 0l-.8-.7c-.1-.1-.2-.1-.3 0l-.3.3c-.1.1-.1.2 0 .3l.7.7c.1.1.1.2 0 .3l-.7.7c-.1.1-.1.2 0 .3l.3.3c.1.1.2.1.3 0l.7-.7c.1-.1.2-.1.3 0l.7.7c.1.1.2.1.3 0l.3-.3c.1-.1.1-.2 0-.3l-.7-.7c-.1-.1-.1-.2 0-.3l.8-.7z"/><path id="T" d="M89.3 383.8c-6.2 0-11.2 5-11.2 11.2s5 11.2 11.2 11.2 11.2-5 11.2-11.2-5-11.2-11.2-11.2zm-.5 16.7c0 .5-.4.8-.8.8h-4c-.5 0-.8-.4-.8-.8v-4c0-.5.4-.8.8-.8h4c.5 0 .8.4.8.8v4zm0-6.9c0 .5-.4.8-.8.8h-4c-.5 0-.8-.4-.8-.8v-3.9c0-.5.4-.8.8-.8h4c.5 0 .8.4.8.8v3.9zm6.8 6.9c0 .5-.4.8-.8.8h-4c-.5 0-.8-.4-.8-.8v-4c0-.5.4-.8.8-.8h3.9c.5 0 .8.4.8.8l.1 4h0zm0-6.9c0 .5-.4.8-.8.8h-4c-.5 0-.8-.4-.8-.8v-3.9c0-.5.4-.8.8-.8h3.9c.5 0 .8.4.8.8l.1 3.9h0z"/><path id="U" d="M116.8 392.8l-1.3-2.5c-.2.1-.4.1-.6.1s-.4 0-.6-.1l-1.4 2.7a1.75 1.75 0 0 1 0 2.8l1.4 2.6c.2-.1.4-.1.6-.1s.4 0 .6.1l1.3-2.5c-.5-.3-.8-.8-.8-1.4 0-.9.3-1.4.8-1.7z"/><path id="V" d="M114.8 383.8a11.29 11.29 0 0 0-11.3 11.3c0 6.3 5 11.2 11.2 11.2s11.2-5 11.2-11.2c.2-6.3-4.8-11.3-11.1-11.3zm5.7 17.8c-1 0-1.7-.8-1.7-1.7 0-.6.3-1.1.8-1.4l-1.3-2.6c-.2.1-.4.1-.6.1s-.4 0-.6-.1l-1.3 2.5c.5.3.8.8.8 1.4 0 1-.8 1.7-1.7 1.7s-1.7-.8-1.7-1.7a1.75 1.75 0 0 1 .7-1.4l-1.4-2.6c-.2.1-.4.1-.6.1-.1 0-.3 0-.5-.1l-1.3 2.5a1.75 1.75 0 0 1 .7 1.4c0 1-.8 1.7-1.7 1.7s-1.7-.8-1.7-1.7c0-1 .8-1.7 1.7-1.7.2 0 .4 0 .6.1l1.3-2.5c-.5-.3-.8-.8-.8-1.5 0-1 .8-1.7 1.7-1.7.3 0 .5.1.7.1l1.3-2.6a1.75 1.75 0 0 1-.7-1.4c0-1 .8-1.7 1.7-1.7s1.7.8 1.7 1.7c0 .6-.3 1.1-.8 1.4l1.3 2.5c.2-.1.3-.1.5-.1 1 0 1.7.8 1.7 1.7a1.75 1.75 0 0 1-.7 1.4l1.3 2.6c.2-.1.4-.1.6-.1 1 0 1.7.8 1.7 1.7.1 1.3-.7 2-1.7 2z"/><path id="W" d="M167.7 392.8l-1.3-2.5c-.2.1-.4.1-.6.1s-.4 0-.6-.1l-1.4 2.7a1.75 1.75 0 0 1 0 2.8l1.4 2.6c.2-.1.4-.1.6-.1s.4 0 .6.1l1.3-2.5c-.5-.3-.8-.8-.8-1.4 0-.9.4-1.4.8-1.7z"/><path id="X" d="M189.6 391.2h-1c-.1 0-.2-.1-.2-.2v-1c0-.1-.1-.2-.2-.2h-.4c-.1 0-.2.1-.2.2v1c0 .1-.1.2-.2.2h-1c-.1 0-.2.1-.2.2v.4c0 .1.1.2.2.2h1c.1 0 .2.1.2.2v1c0 .1.1.2.2.2h.4c.1 0 .2-.1.2-.2v-1c0-.1.1-.2.2-.2h1c.1 0 .2-.1.2-.2v-.4l-.2-.2z"/><path id="Y" d="M247.3 397.2H244c-.1 0-.2.1-.2.2v.4c0 .1.1.2.2.2h3.3c.1 0 .2-.1.2-.2v-.4c.1-.1 0-.2-.2-.2z"/><path id="Z" d="M267.8 383.8a11.29 11.29 0 0 0-11.3 11.3c0 6.3 5 11.2 11.2 11.2s11.2-5 11.2-11.2c.1-6.3-4.9-11.3-11.1-11.3zm5.7 17.8c-1 0-1.7-.8-1.7-1.7 0-.6.3-1.1.8-1.4l-1.3-2.6c-.2.1-.4.1-.6.1s-.4 0-.6-.1l-1.3 2.5c.5.3.8.8.8 1.4 0 1-.8 1.7-1.7 1.7-1 0-1.7-.8-1.7-1.7a1.75 1.75 0 0 1 .7-1.4l-1.4-2.6c-.2.1-.4.1-.6.1-.1 0-.3 0-.5-.1l-1.3 2.5a1.75 1.75 0 0 1 .7 1.4c0 1-.8 1.7-1.7 1.7s-1.7-.8-1.7-1.7c0-1 .8-1.7 1.7-1.7.2 0 .4 0 .6.1l1.3-2.5c-.5-.3-.8-.8-.8-1.5 0-1 .8-1.7 1.7-1.7.3 0 .5.1.7.1l1.3-2.6a1.75 1.75 0 0 1-.7-1.4c0-1 .8-1.7 1.7-1.7s1.7.8 1.7 1.7c0 .6-.3 1.1-.8 1.4l1.3 2.5c.2-.1.3-.1.5-.1 1 0 1.7.8 1.7 1.7a1.75 1.75 0 0 1-.7 1.4l1.3 2.6c.2-.1.4-.1.6-.1 1 0 1.7.8 1.7 1.7 0 1.3-.7 2-1.7 2z"/><path id="a" d="M63.8 409.3c-6.2 0-11.2 5-11.2 11.2s5 11.2 11.2 11.2 11.2-5 11.2-11.2c.1-6.2-4.9-11.2-11.2-11.2zm-.5 16.7c0 .5-.4.8-.8.8h-4c-.5 0-.8-.4-.8-.8v-4c0-.5.4-.8.8-.8h4c.5 0 .8.4.8.8v4zm0-6.9c0 .5-.4.8-.8.8h-4c-.5 0-.8-.4-.8-.8v-3.9c0-.5.4-.8.8-.8h4c.5 0 .8.4.8.8v3.9zm6.8 6.9c0 .5-.4.8-.8.8h-4c-.5 0-.8-.4-.8-.8v-4c0-.5.4-.8.8-.8h4c.5 0 .8.4.8.8v4zm0-6.9c0 .5-.4.8-.8.8h-4c-.5 0-.8-.4-.8-.8v-3.9c0-.5.4-.8.8-.8h4c.5 0 .8.4.8.8v3.9z"/><path id="b" d="M114.8 409.3c-6.2 0-11.2 5-11.2 11.2s5 11.2 11.2 11.2 11.2-5 11.2-11.2c.1-6.2-5-11.2-11.2-11.2zm-.5 16.7c0 .5-.4.8-.8.8h-4c-.5 0-.8-.4-.8-.8v-4c0-.5.4-.8.8-.8h4c.5 0 .8.4.8.8v4zm0-6.9c0 .5-.4.8-.8.8h-4c-.5 0-.8-.4-.8-.8v-3.9c0-.5.4-.8.8-.8h4c.5 0 .8.4.8.8v3.9zm6.8 6.9c0 .5-.4.8-.8.8h-4c-.5 0-.8-.4-.8-.8v-4c0-.5.4-.8.8-.8h4c.5 0 .8.4.8.8v4zm0-6.9c0 .5-.4.8-.8.8h-4c-.5 0-.8-.4-.8-.8v-3.9c0-.5.4-.8.8-.8h4c.5 0 .8.4.8.8v3.9z"/><path id="c" d="M165.8 409.3c-6.2 0-11.2 5-11.2 11.2s5 11.2 11.2 11.2 11.2-5 11.2-11.2c.1-6.2-5-11.2-11.2-11.2zm-.5 16.7c0 .5-.4.8-.8.8h-4c-.5 0-.8-.4-.8-.8v-4c0-.5.4-.8.8-.8h3.9c.5 0 .8.4.8.8l.1 4h0zm0-6.9c0 .5-.4.8-.8.8h-4c-.5 0-.8-.4-.8-.8v-3.9c0-.5.4-.8.8-.8h3.9c.5 0 .8.4.8.8l.1 3.9h0zm6.8 6.9c0 .5-.4.8-.8.8h-4c-.5 0-.8-.4-.8-.8v-4c0-.5.4-.8.8-.8h4c.5 0 .8.4.8.8v4zm0-6.9c0 .5-.4.8-.8.8h-4c-.5 0-.8-.4-.8-.8v-3.9c0-.5.4-.8.8-.8h4c.5 0 .8.4.8.8v3.9z"/><path id="d" d="M318.8 358.3c-6.2 0-11.2 5-11.2 11.2s5 11.2 11.2 11.2 11.2-5 11.2-11.2-5-11.2-11.2-11.2zm-.6 16.7c0 .5-.4.8-.8.8h-4c-.5 0-.8-.4-.8-.8v-4c0-.5.4-.8.8-.8h3.9c.5 0 .8.4.8.8l.1 4h0zm0-6.9c0 .5-.4.8-.8.8h-4c-.5 0-.8-.4-.8-.8v-3.9c0-.5.4-.8.8-.8h3.9c.5 0 .8.4.8.8l.1 3.9h0zm6.8 6.9c0 .5-.4.8-.8.8h-4c-.5 0-.8-.4-.8-.8v-4c0-.5.4-.8.8-.8h4c.5 0 .8.4.8.8v4zm0-6.9c0 .5-.4.8-.8.8h-4c-.5 0-.8-.4-.8-.8v-3.9c0-.5.4-.8.8-.8h4c.5 0 .8.4.8.8v3.9z"/><path id="e" d="M420.8 358.3c-6.2 0-11.2 5-11.2 11.2s5 11.2 11.2 11.2 11.2-5 11.2-11.2-5.1-11.2-11.2-11.2zm-.6 16.7c0 .5-.4.8-.8.8h-4c-.5 0-.8-.4-.8-.8v-4c0-.5.4-.8.8-.8h4c.5 0 .8.4.8.8v4zm0-6.9c0 .5-.4.8-.8.8h-4c-.5 0-.8-.4-.8-.8v-3.9c0-.5.4-.8.8-.8h4c.5 0 .8.4.8.8v3.9zm6.8 6.9c0 .5-.4.8-.8.8h-4c-.5 0-.8-.4-.8-.8v-4c0-.5.4-.8.8-.8h4c.5 0 .8.4.8.8v4zm0-6.9c0 .5-.4.8-.8.8h-4c-.5 0-.8-.4-.8-.8v-3.9c0-.5.4-.8.8-.8h4c.5 0 .8.4.8.8v3.9z"/><path id="f" d="M298.4 397.2h-3.3c-.1 0-.2.1-.2.2v.4c0 .1.1.2.2.2h3.3c.1 0 .2-.1.2-.2v-.4c-.1-.1-.1-.2-.2-.2z"/><path id="g" d="M349.3 397.2H346c-.1 0-.2.1-.2.2v.4c0 .1.1.2.2.2h3.3c.1 0 .2-.1.2-.2v-.4c0-.1-.1-.2-.2-.2z"/><path id="h" d="M369.8 383.8a11.29 11.29 0 0 0-11.3 11.3c0 6.3 5 11.2 11.2 11.2s11.2-5 11.2-11.2c.1-6.3-4.9-11.3-11.1-11.3zm5.7 17.8c-1 0-1.7-.8-1.7-1.7 0-.6.3-1.1.8-1.4l-1.3-2.6c-.2.1-.4.1-.6.1s-.4 0-.6-.1l-1.3 2.5c.5.3.8.8.8 1.4 0 1-.8 1.7-1.7 1.7-1 0-1.7-.8-1.7-1.7a1.75 1.75 0 0 1 .7-1.4l-1.4-2.6c-.2.1-.4.1-.6.1-.1 0-.3 0-.5-.1l-1.3 2.5a1.75 1.75 0 0 1 .7 1.4c0 1-.8 1.7-1.7 1.7s-1.7-.8-1.7-1.7c0-1 .8-1.7 1.7-1.7.2 0 .4 0 .6.1l1.3-2.5c-.5-.3-.8-.8-.8-1.5 0-1 .8-1.7 1.7-1.7.3 0 .5.1.7.1l1.3-2.6a1.75 1.75 0 0 1-.7-1.4c0-1 .8-1.7 1.7-1.7 1 0 1.7.8 1.7 1.7 0 .6-.3 1.1-.8 1.4l1.3 2.5c.2-.1.3-.1.5-.1 1 0 1.7.8 1.7 1.7a1.75 1.75 0 0 1-.7 1.4l1.3 2.6c.2-.1.4-.1.6-.1 1 0 1.7.8 1.7 1.7 0 1.3-.8 2-1.7 2z"/><path id="i" d="M400.3 397.2H397c-.1 0-.2.1-.2.2v.4c0 .1.1.2.2.2h3.3c.1 0 .2-.1.2-.2v-.4c0-.1-.1-.2-.2-.2z"/><path id="j" d="M420.8 383.8a11.29 11.29 0 0 0-11.3 11.3c0 6.3 5 11.2 11.2 11.2s11.2-5 11.2-11.2c.1-6.3-4.9-11.3-11.1-11.3zm5.6 17.8c-1 0-1.7-.8-1.7-1.7 0-.6.3-1.1.8-1.4l-1.3-2.6c-.2.1-.4.1-.6.1s-.4 0-.6-.1l-1.3 2.5c.5.3.8.8.8 1.4 0 1-.8 1.7-1.7 1.7s-1.7-.8-1.7-1.7a1.75 1.75 0 0 1 .7-1.4l-1.4-2.6c-.2.1-.4.1-.6.1-.1 0-.3 0-.5-.1l-1.3 2.5a1.75 1.75 0 0 1 .7 1.4c0 1-.8 1.7-1.7 1.7s-1.7-.8-1.7-1.7c0-1 .8-1.7 1.7-1.7.2 0 .4 0 .6.1l1.3-2.5c-.5-.3-.8-.8-.8-1.5 0-1 .8-1.7 1.7-1.7.3 0 .5.1.7.1l1.3-2.6a1.75 1.75 0 0 1-.7-1.4c0-1 .8-1.7 1.7-1.7s1.7.8 1.7 1.7c0 .6-.3 1.1-.8 1.4l1.3 2.5c.2-.1.3-.1.5-.1 1 0 1.7.8 1.7 1.7a1.75 1.75 0 0 1-.7 1.4l1.3 2.6c.2-.1.4-.1.6-.1 1 0 1.7.8 1.7 1.7.1 1.3-.7 2-1.7 2z"/><path id="k" d="M451.3 397.2H448c-.1 0-.2.1-.2.2v.4c0 .1.1.2.2.2h3.3c.1 0 .2-.1.2-.2v-.4c0-.1-.1-.2-.2-.2z"/><path id="l" d="M502.3 397.2H499c-.1 0-.2.1-.2.2v.4c0 .1.1.2.2.2h3.3c.1 0 .2-.1.2-.2v-.4c0-.1-.1-.2-.2-.2z"/><path id="m" d="M548.2 358.3a11.29 11.29 0 0 0-11.3 11.3c0 6.2 5 11.2 11.2 11.2s11.2-5 11.2-11.2c.2-6.3-4.9-11.3-11.1-11.3zm5.7 17.9c-1 0-1.7-.8-1.7-1.7 0-.6.3-1.1.8-1.4l-1.3-2.6c-.2.1-.4.1-.6.1s-.4 0-.6-.1l-1.3 2.5c.5.3.8.8.8 1.4 0 1-.8 1.7-1.7 1.7s-1.7-.8-1.7-1.7a1.75 1.75 0 0 1 .7-1.4l-1.4-2.6c-.2.1-.4.1-.6.1-.1 0-.3 0-.5-.1l-1.3 2.5a1.75 1.75 0 0 1 .7 1.4c0 1-.8 1.7-1.7 1.7s-1.7-.8-1.7-1.7c0-1 .8-1.7 1.7-1.7.2 0 .4 0 .6.1l1.3-2.5c-.5-.3-.8-.8-.8-1.5 0-1 .8-1.7 1.7-1.7.3 0 .5.1.7.1l1.3-2.6a1.75 1.75 0 0 1-.7-1.4c0-1 .8-1.7 1.7-1.7s1.7.8 1.7 1.7c0 .6-.3 1.1-.8 1.4l1.3 2.5c.2-.1.3-.1.5-.1 1 0 1.7.8 1.7 1.7a1.75 1.75 0 0 1-.7 1.4l1.3 2.6c.2-.1.4-.1.6-.1 1 0 1.7.8 1.7 1.7 0 1.2-.7 2-1.7 2z"/><path id="n" d="M553.3 397.2H550c-.1 0-.2.1-.2.2v.4c0 .1.1.2.2.2h3.3c.1 0 .2-.1.2-.2v-.4c0-.1-.1-.2-.2-.2z"/><path id="o" d="M604.3 397.2H601c-.1 0-.2.1-.2.2v.4c0 .1.1.2.2.2h3.3c.1 0 .2-.1.2-.2v-.4c-.1-.1-.1-.2-.2-.2z"/><path id="p" d="M548.2 409.3a11.29 11.29 0 0 0-11.3 11.3c0 6.3 5 11.2 11.2 11.2s11.2-5 11.2-11.2c.2-6.3-4.9-11.3-11.1-11.3zm5.7 17.8c-1 0-1.7-.8-1.7-1.7 0-.6.3-1.1.8-1.4l-1.3-2.6c-.2.1-.4.1-.6.1s-.4 0-.6-.1l-1.3 2.5c.5.3.8.8.8 1.4 0 1-.8 1.7-1.7 1.7s-1.7-.8-1.7-1.7a1.75 1.75 0 0 1 .7-1.4l-1.4-2.6c-.2.1-.4.1-.6.1-.1 0-.3 0-.5-.1l-1.3 2.5a1.75 1.75 0 0 1 .7 1.4c0 1-.8 1.7-1.7 1.7s-1.7-.8-1.7-1.7.8-1.7 1.7-1.7c.2 0 .4 0 .6.1l1.3-2.5c-.5-.3-.8-.8-.8-1.5 0-1 .8-1.7 1.7-1.7.3 0 .5.1.7.1l1.3-2.6a1.75 1.75 0 0 1-.7-1.4c0-1 .8-1.7 1.7-1.7s1.7.8 1.7 1.7c0 .6-.3 1.1-.8 1.4l1.3 2.5c.2-.1.3-.1.5-.1 1 0 1.7.8 1.7 1.7a1.75 1.75 0 0 1-.7 1.4l1.3 2.6c.2-.1.4-.1.6-.1 1 0 1.7.8 1.7 1.7 0 1.3-.7 2-1.7 2z"/><path id="q" d="M724.9 365.7h-1c-.1 0-.2-.1-.2-.2v-1c0-.1-.1-.2-.2-.2h-.5c-.1 0-.2.1-.2.2v1c0 .1-.1.2-.2.2h-1c-.1 0-.2.1-.2.2v.4c0 .1.1.2.2.2h1c.1 0 .2.1.2.2v1c0 .1.1.2.2.2h.4c.1 0 .2-.1.2-.2v-1c0-.1.1-.2.2-.2h1c.1 0 .2-.1.2-.2v-.4c.1-.1 0-.2-.1-.2z"/><path id="r" d="M826.9 365.7h-1c-.1 0-.2-.1-.2-.2v-1c0-.1-.1-.2-.2-.2h-.5c-.1 0-.2.1-.2.2v1c0 .1-.1.2-.2.2h-1c-.1 0-.2.1-.2.2v.4c0 .1.1.2.2.2h1c.1 0 .2.1.2.2v1c0 .1.1.2.2.2h.4c.1 0 .2-.1.2-.2v-1c0-.1.1-.2.2-.2h1c.1 0 .2-.1.2-.2v-.4c.1-.1-.1-.2-.1-.2z"/><path id="s" d="M655.2 397.2H652c-.1 0-.2.1-.2.2v.4c0 .1.1.2.2.2h3.3c.1 0 .2-.1.2-.2v-.4c0-.1-.2-.2-.3-.2z"/><path id="t" d="M706.2 397.2H703c-.1 0-.2.1-.2.2v.4c0 .1.1.2.2.2h3.3c.1 0 .2-.1.2-.2v-.4c-.1-.1-.1-.2-.3-.2z"/><path id="u" d="M961.1 397.2h-3.3c-.1 0-.2.1-.2.2v.4c0 .1.1.2.2.2h3.3c.1 0 .2-.1.2-.2v-.4c.1-.1 0-.2-.2-.2z"/><path id="v" d="M1032.6 383.8a11.29 11.29 0 0 0-11.3 11.3c0 6.3 5 11.2 11.2 11.2s11.2-5 11.2-11.2c.1-6.3-4.9-11.3-11.1-11.3zm5.7 17.8c-1 0-1.7-.8-1.7-1.7 0-.6.3-1.1.8-1.4l-1.3-2.6c-.2.1-.4.1-.6.1s-.4 0-.6-.1l-1.3 2.5c.5.3.8.8.8 1.4 0 1-.8 1.7-1.7 1.7s-1.7-.8-1.7-1.7a1.75 1.75 0 0 1 .7-1.4l-1.4-2.6c-.2.1-.4.1-.6.1-.1 0-.3 0-.5-.1l-1.3 2.5a1.75 1.75 0 0 1 .7 1.4c0 1-.8 1.7-1.7 1.7s-1.7-.8-1.7-1.7c0-1 .8-1.7 1.7-1.7.2 0 .4 0 .6.1l1.3-2.5c-.5-.3-.8-.8-.8-1.5 0-1 .8-1.7 1.7-1.7.3 0 .5.1.7.1l1.3-2.6a1.75 1.75 0 0 1-.7-1.4c0-1 .8-1.7 1.7-1.7s1.7.8 1.7 1.7c0 .6-.3 1.1-.8 1.4l1.3 2.5c.2-.1.3-.1.5-.1 1 0 1.7.8 1.7 1.7a1.75 1.75 0 0 1-.7 1.4l1.3 2.6c.2-.1.4-.1.6-.1 1 0 1.7.8 1.7 1.7 0 1.3-.8 2-1.7 2z"/></defs></svg>